<?xml version="1.0" encoding="UTF-8" standalone="no"?>
<!DOCTYPE svg PUBLIC "-//W3C//DTD SVG 1.1//EN" "http://www.w3.org/Graphics/SVG/1.1/DTD/svg11.dtd">
<svg width="100%" height="100%" viewBox="0 0 256 256" version="1.1" xmlns="http://www.w3.org/2000/svg" xmlns:xlink="http://www.w3.org/1999/xlink" xml:space="preserve" xmlns:serif="http://www.serif.com/" style="fill-rule:evenodd;clip-rule:evenodd;stroke-linejoin:round;stroke-miterlimit:2;">
    <g transform="matrix(1,0,0,1,-97547.2,-72517)">
        <g id="mcr_favicon" transform="matrix(0.018613,0,0,0.00861349,95855.1,72517)">
            <rect x="90905.5" y="0" width="13753.9" height="29720.8" style="fill:none;"/>
            <g transform="matrix(7.4663,0,0,16.134,-9959.11,-1.32283e+06)">
                <g transform="matrix(0.227545,0,0,0.554922,10905.5,72035.5)">
                    <path d="M15490.9,19599C15437.8,19599 15384.2,19191.9 15331.6,18977.7C15294.6,18827 15258.2,18676.1 15222.1,18525.1C15209.7,18472.9 15197.9,18420.5 15186,18368.1C15179.6,18339.7 15171,18309.6 15172.5,18280.1C15174.8,18233.4 15188.5,18186.3 15210.9,18145.3C15232.1,18106.5 15260.9,18071.9 15296,18045C15324.6,18022.9 15357.2,18006 15391.5,17994.7C15439.5,17978.9 15491.4,17974 15541.4,17981.7C15654.9,17999.1 15752.5,18082.3 15791.2,18189.9C15804,18225.4 15812,18264.7 15808.7,18302.4C15807,18323.4 15800.1,18349.1 15795.8,18368.1C15783.8,18420.5 15772.2,18472.9 15759.7,18525.1C15723.6,18676.1 15687.2,18827 15650.2,18977.7C15597.6,19191.9 15544,19599 15490.9,19599Z" style="fill:rgb(239,110,35);"/>
                </g>
                <g transform="matrix(0.219792,0.058893,-0.143624,0.536014,13840.5,71493.7)">
                    <path d="M15490.9,19599C15437.8,19599 15384.2,19191.9 15331.6,18977.7C15294.6,18827 15258.2,18676.1 15222.1,18525.1C15209.7,18472.9 15197.9,18420.5 15186,18368.1C15179.6,18339.7 15171,18309.6 15172.5,18280.1C15174.8,18233.4 15188.5,18186.3 15210.9,18145.3C15232.1,18106.5 15260.9,18071.9 15296,18045C15324.6,18022.9 15357.2,18006 15391.5,17994.7C15439.5,17978.9 15491.4,17974 15541.4,17981.7C15654.9,17999.1 15752.5,18082.3 15791.2,18189.9C15804,18225.4 15812,18264.7 15808.7,18302.4C15807,18323.4 15800.1,18349.1 15795.8,18368.1C15783.8,18420.5 15772.2,18472.9 15759.7,18525.1C15723.6,18676.1 15687.2,18827 15650.2,18977.7C15597.6,19191.9 15544,19599 15490.9,19599Z" style="fill:rgb(239,110,35);"/>
                </g>
                <g transform="matrix(0.19706,0.113772,-0.277461,0.480577,16815.7,71730.1)">
                    <path d="M15490.9,19599C15437.8,19599 15384.2,19191.9 15331.6,18977.7C15294.6,18827 15258.2,18676.1 15222.1,18525.1C15209.7,18472.9 15197.9,18420.5 15186,18368.1C15179.6,18339.7 15171,18309.6 15172.5,18280.1C15174.8,18233.4 15188.5,18186.3 15210.9,18145.3C15232.1,18106.5 15260.9,18071.9 15296,18045C15324.6,18022.9 15357.2,18006 15391.5,17994.7C15439.5,17978.9 15491.4,17974 15541.4,17981.7C15654.9,17999.1 15752.5,18082.3 15791.2,18189.9C15804,18225.4 15812,18264.7 15808.7,18302.4C15807,18323.4 15800.1,18349.1 15795.8,18368.1C15783.8,18420.5 15772.2,18472.9 15759.7,18525.1C15723.6,18676.1 15687.2,18827 15650.2,18977.7C15597.6,19191.9 15544,19599 15490.9,19599Z" style="fill:rgb(239,110,35);"/>
                </g>
                <g transform="matrix(0.160899,0.160899,-0.392389,0.392389,19628.3,72728.5)">
                    <path d="M15490.9,19599C15437.8,19599 15384.2,19191.9 15331.6,18977.7C15294.6,18827 15258.2,18676.1 15222.1,18525.1C15209.7,18472.9 15197.9,18420.5 15186,18368.1C15179.6,18339.7 15171,18309.6 15172.5,18280.1C15174.8,18233.4 15188.5,18186.3 15210.9,18145.3C15232.1,18106.5 15260.9,18071.9 15296,18045C15324.6,18022.9 15357.2,18006 15391.5,17994.7C15439.5,17978.9 15491.4,17974 15541.4,17981.7C15654.9,17999.1 15752.5,18082.3 15791.2,18189.9C15804,18225.4 15812,18264.7 15808.7,18302.4C15807,18323.4 15800.1,18349.1 15795.8,18368.1C15783.8,18420.5 15772.2,18472.9 15759.7,18525.1C15723.6,18676.1 15687.2,18827 15650.2,18977.7C15597.6,19191.9 15544,19599 15490.9,19599Z" style="fill:rgb(239,110,35);"/>
                </g>
                <g transform="matrix(0.113772,0.19706,-0.480577,0.277461,22086.8,74420.8)">
                    <path d="M15490.9,19599C15437.8,19599 15384.2,19191.9 15331.6,18977.7C15294.6,18827 15258.2,18676.1 15222.1,18525.1C15209.7,18472.9 15197.9,18420.5 15186,18368.1C15179.6,18339.7 15171,18309.6 15172.5,18280.1C15174.8,18233.4 15188.5,18186.3 15210.9,18145.3C15232.1,18106.5 15260.9,18071.9 15296,18045C15324.6,18022.9 15357.2,18006 15391.5,17994.7C15439.5,17978.9 15491.4,17974 15541.4,17981.7C15654.9,17999.1 15752.5,18082.3 15791.2,18189.9C15804,18225.4 15812,18264.7 15808.7,18302.4C15807,18323.4 15800.1,18349.1 15795.8,18368.1C15783.8,18420.5 15772.2,18472.9 15759.7,18525.1C15723.6,18676.1 15687.2,18827 15650.2,18977.7C15597.6,19191.9 15544,19599 15490.9,19599Z" style="fill:rgb(239,110,35);"/>
                </g>
                <g transform="matrix(0.058893,0.219792,-0.536014,0.143624,24023.4,76691.7)">
                    <path d="M15490.9,19599C15437.8,19599 15384.2,19191.9 15331.6,18977.7C15294.6,18827 15258.2,18676.1 15222.1,18525.1C15209.7,18472.9 15197.9,18420.5 15186,18368.1C15179.6,18339.7 15171,18309.6 15172.5,18280.1C15174.8,18233.4 15188.5,18186.3 15210.9,18145.3C15232.1,18106.5 15260.9,18071.9 15296,18045C15324.6,18022.9 15357.2,18006 15391.5,17994.7C15439.5,17978.9 15491.4,17974 15541.4,17981.7C15654.9,17999.1 15752.5,18082.3 15791.2,18189.9C15804,18225.4 15812,18264.7 15808.7,18302.4C15807,18323.4 15800.1,18349.1 15795.8,18368.1C15783.8,18420.5 15772.2,18472.9 15759.7,18525.1C15723.6,18676.1 15687.2,18827 15650.2,18977.7C15597.6,19191.9 15544,19599 15490.9,19599Z" style="fill:rgb(239,110,35);"/>
                </g>
                <g transform="matrix(9.05346e-18,0.227545,-0.554922,1.94289e-16,25306.3,79386.5)">
                    <path d="M15490.9,19599C15437.8,19599 15384.2,19191.9 15331.6,18977.7C15294.6,18827 15258.2,18676.1 15222.1,18525.1C15209.7,18472.9 15197.9,18420.5 15186,18368.1C15179.6,18339.7 15171,18309.6 15172.5,18280.1C15174.8,18233.4 15188.5,18186.3 15210.9,18145.3C15232.1,18106.5 15260.9,18071.9 15296,18045C15324.6,18022.9 15357.2,18006 15391.5,17994.7C15439.5,17978.9 15491.4,17974 15541.4,17981.7C15654.9,17999.1 15752.5,18082.3 15791.2,18189.9C15804,18225.4 15812,18264.7 15808.7,18302.4C15807,18323.4 15800.1,18349.1 15795.8,18368.1C15783.8,18420.5 15772.2,18472.9 15759.7,18525.1C15723.6,18676.1 15687.2,18827 15650.2,18977.7C15597.6,19191.9 15544,19599 15490.9,19599Z" style="fill:rgb(239,110,35);"/>
                </g>
                <g transform="matrix(0.219792,-0.058893,0.143624,0.536014,8210.7,73318.3)">
                    <path d="M15490.9,19599C15437.8,19599 15384.2,19191.9 15331.6,18977.7C15294.6,18827 15258.2,18676.1 15222.1,18525.1C15209.7,18472.9 15197.9,18420.5 15186,18368.1C15179.6,18339.7 15171,18309.6 15172.5,18280.1C15174.8,18233.4 15188.5,18186.3 15210.9,18145.3C15232.1,18106.5 15260.9,18071.9 15296,18045C15324.6,18022.9 15357.2,18006 15391.5,17994.7C15439.5,17978.9 15491.4,17974 15541.4,17981.7C15654.9,17999.1 15752.5,18082.3 15791.2,18189.9C15804,18225.4 15812,18264.7 15808.7,18302.4C15807,18323.4 15800.1,18349.1 15795.8,18368.1C15783.8,18420.5 15772.2,18472.9 15759.7,18525.1C15723.6,18676.1 15687.2,18827 15650.2,18977.7C15597.6,19191.9 15544,19599 15490.9,19599Z" style="fill:rgb(239,110,35);"/>
                </g>
                <g transform="matrix(0.19706,-0.113772,0.277461,0.480577,5939.77,75255)">
                    <path d="M15490.9,19599C15437.8,19599 15384.2,19191.9 15331.6,18977.7C15294.6,18827 15258.2,18676.1 15222.1,18525.1C15209.7,18472.9 15197.9,18420.5 15186,18368.1C15179.6,18339.7 15171,18309.6 15172.5,18280.1C15174.8,18233.4 15188.5,18186.3 15210.9,18145.3C15232.1,18106.5 15260.9,18071.9 15296,18045C15324.6,18022.9 15357.2,18006 15391.5,17994.7C15439.5,17978.9 15491.4,17974 15541.4,17981.7C15654.9,17999.1 15752.5,18082.3 15791.2,18189.9C15804,18225.4 15812,18264.7 15808.7,18302.4C15807,18323.4 15800.1,18349.1 15795.8,18368.1C15783.8,18420.5 15772.2,18472.9 15759.7,18525.1C15723.6,18676.1 15687.2,18827 15650.2,18977.7C15597.6,19191.9 15544,19599 15490.9,19599Z" style="fill:rgb(239,110,35);"/>
                </g>
                <g transform="matrix(0.160899,-0.160899,0.392389,0.392389,4247.46,77713.4)">
                    <path d="M15490.9,19599C15437.8,19599 15384.2,19191.9 15331.6,18977.7C15294.6,18827 15258.2,18676.1 15222.1,18525.1C15209.7,18472.9 15197.9,18420.5 15186,18368.1C15179.6,18339.7 15171,18309.6 15172.5,18280.1C15174.8,18233.4 15188.5,18186.3 15210.9,18145.3C15232.1,18106.5 15260.9,18071.9 15296,18045C15324.6,18022.9 15357.2,18006 15391.5,17994.7C15439.5,17978.9 15491.4,17974 15541.4,17981.7C15654.9,17999.1 15752.5,18082.3 15791.2,18189.9C15804,18225.4 15812,18264.7 15808.7,18302.4C15807,18323.4 15800.1,18349.1 15795.8,18368.1C15783.8,18420.5 15772.2,18472.9 15759.7,18525.1C15723.6,18676.1 15687.2,18827 15650.2,18977.7C15597.6,19191.9 15544,19599 15490.9,19599Z" style="fill:rgb(239,110,35);"/>
                </g>
                <g transform="matrix(0.113772,-0.19706,0.480577,0.277461,3249.1,80526)">
                    <path d="M15490.9,19599C15437.8,19599 15384.2,19191.9 15331.6,18977.7C15294.6,18827 15258.2,18676.1 15222.1,18525.1C15209.7,18472.9 15197.9,18420.5 15186,18368.1C15179.6,18339.7 15171,18309.6 15172.5,18280.1C15174.8,18233.4 15188.5,18186.3 15210.9,18145.3C15232.1,18106.5 15260.9,18071.9 15296,18045C15324.6,18022.9 15357.2,18006 15391.5,17994.7C15439.5,17978.9 15491.4,17974 15541.4,17981.7C15654.9,17999.1 15752.5,18082.3 15791.2,18189.9C15804,18225.4 15812,18264.7 15808.7,18302.4C15807,18323.4 15800.1,18349.1 15795.8,18368.1C15783.8,18420.5 15772.2,18472.9 15759.7,18525.1C15723.6,18676.1 15687.2,18827 15650.2,18977.7C15597.6,19191.9 15544,19599 15490.9,19599Z" style="fill:rgb(239,110,35);"/>
                </g>
                <g transform="matrix(0.058893,-0.219792,0.536014,0.143624,3012.72,83501.3)">
                    <path d="M15490.9,19599C15437.8,19599 15384.2,19191.9 15331.6,18977.7C15294.6,18827 15258.2,18676.1 15222.1,18525.1C15209.7,18472.9 15197.9,18420.5 15186,18368.1C15179.6,18339.7 15171,18309.6 15172.5,18280.1C15174.8,18233.4 15188.5,18186.3 15210.9,18145.3C15232.1,18106.5 15260.9,18071.9 15296,18045C15324.6,18022.9 15357.2,18006 15391.5,17994.7C15439.5,17978.9 15491.4,17974 15541.4,17981.7C15654.9,17999.1 15752.5,18082.3 15791.2,18189.9C15804,18225.4 15812,18264.7 15808.7,18302.4C15807,18323.4 15800.1,18349.1 15795.8,18368.1C15783.8,18420.5 15772.2,18472.9 15759.7,18525.1C15723.6,18676.1 15687.2,18827 15650.2,18977.7C15597.6,19191.9 15544,19599 15490.9,19599Z" style="fill:rgb(239,110,35);"/>
                </g>
                <g transform="matrix(9.05346e-18,-0.227545,0.554922,1.94289e-16,3554.43,86436.3)">
                    <path d="M15490.9,19599C15437.8,19599 15384.2,19191.9 15331.6,18977.7C15294.6,18827 15258.2,18676.1 15222.1,18525.1C15209.7,18472.9 15197.9,18420.5 15186,18368.1C15179.6,18339.7 15171,18309.6 15172.5,18280.1C15174.8,18233.4 15188.5,18186.3 15210.9,18145.3C15232.1,18106.5 15260.9,18071.9 15296,18045C15324.6,18022.9 15357.2,18006 15391.5,17994.7C15439.5,17978.9 15491.4,17974 15541.4,17981.7C15654.9,17999.1 15752.5,18082.3 15791.2,18189.9C15804,18225.4 15812,18264.7 15808.7,18302.4C15807,18323.4 15800.1,18349.1 15795.8,18368.1C15783.8,18420.5 15772.2,18472.9 15759.7,18525.1C15723.6,18676.1 15687.2,18827 15650.2,18977.7C15597.6,19191.9 15544,19599 15490.9,19599Z" style="fill:rgb(239,110,35);"/>
                </g>
                <g transform="matrix(-0.058893,-0.219792,0.536014,-0.143624,4837.33,89131)">
                    <path d="M15490.9,19599C15437.8,19599 15384.2,19191.9 15331.6,18977.7C15294.6,18827 15258.2,18676.1 15222.1,18525.1C15209.7,18472.9 15197.9,18420.5 15186,18368.1C15179.6,18339.7 15171,18309.6 15172.5,18280.1C15174.8,18233.4 15188.5,18186.3 15210.9,18145.3C15232.1,18106.5 15260.9,18071.9 15296,18045C15324.6,18022.9 15357.2,18006 15391.5,17994.7C15439.5,17978.9 15491.4,17974 15541.4,17981.7C15654.9,17999.1 15752.5,18082.3 15791.2,18189.9C15804,18225.4 15812,18264.7 15808.7,18302.4C15807,18323.4 15800.1,18349.1 15795.8,18368.1C15783.8,18420.5 15772.2,18472.9 15759.7,18525.1C15723.6,18676.1 15687.2,18827 15650.2,18977.7C15597.6,19191.9 15544,19599 15490.9,19599Z" style="fill:rgb(239,110,35);"/>
                </g>
                <g transform="matrix(-0.113772,-0.19706,0.480577,-0.277461,6773.97,91402)">
                    <path d="M15490.9,19599C15437.8,19599 15384.2,19191.9 15331.6,18977.7C15294.6,18827 15258.2,18676.1 15222.1,18525.1C15209.7,18472.9 15197.9,18420.5 15186,18368.1C15179.6,18339.7 15171,18309.6 15172.5,18280.1C15174.8,18233.4 15188.5,18186.3 15210.9,18145.3C15232.1,18106.5 15260.9,18071.9 15296,18045C15324.6,18022.9 15357.2,18006 15391.5,17994.7C15439.5,17978.9 15491.4,17974 15541.4,17981.7C15654.9,17999.1 15752.5,18082.3 15791.2,18189.9C15804,18225.4 15812,18264.7 15808.7,18302.4C15807,18323.4 15800.1,18349.1 15795.8,18368.1C15783.8,18420.5 15772.2,18472.9 15759.7,18525.1C15723.6,18676.1 15687.2,18827 15650.2,18977.7C15597.6,19191.9 15544,19599 15490.9,19599Z" style="fill:rgb(239,110,35);"/>
                </g>
                <g transform="matrix(-0.160899,-0.160899,0.392389,-0.392389,9232.38,93094.3)">
                    <path d="M15490.9,19599C15437.8,19599 15384.2,19191.9 15331.6,18977.7C15294.6,18827 15258.2,18676.1 15222.1,18525.1C15209.7,18472.9 15197.9,18420.5 15186,18368.1C15179.6,18339.7 15171,18309.6 15172.5,18280.1C15174.8,18233.4 15188.5,18186.3 15210.9,18145.3C15232.1,18106.5 15260.9,18071.9 15296,18045C15324.6,18022.9 15357.2,18006 15391.5,17994.7C15439.5,17978.9 15491.4,17974 15541.4,17981.7C15654.9,17999.1 15752.5,18082.3 15791.2,18189.9C15804,18225.4 15812,18264.7 15808.7,18302.4C15807,18323.4 15800.1,18349.1 15795.8,18368.1C15783.8,18420.5 15772.2,18472.9 15759.7,18525.1C15723.6,18676.1 15687.2,18827 15650.2,18977.7C15597.6,19191.9 15544,19599 15490.9,19599Z" style="fill:rgb(239,110,35);"/>
                </g>
                <g transform="matrix(-0.19706,-0.113772,0.277461,-0.480577,12045,94092.7)">
                    <path d="M15490.9,19599C15437.8,19599 15384.2,19191.9 15331.6,18977.7C15294.6,18827 15258.2,18676.1 15222.1,18525.1C15209.7,18472.9 15197.9,18420.5 15186,18368.1C15179.6,18339.7 15171,18309.6 15172.5,18280.1C15174.8,18233.4 15188.5,18186.3 15210.9,18145.3C15232.1,18106.5 15260.9,18071.9 15296,18045C15324.6,18022.9 15357.2,18006 15391.5,17994.7C15439.5,17978.9 15491.4,17974 15541.4,17981.7C15654.9,17999.1 15752.5,18082.3 15791.2,18189.9C15804,18225.4 15812,18264.7 15808.7,18302.4C15807,18323.4 15800.1,18349.1 15795.8,18368.1C15783.8,18420.5 15772.2,18472.9 15759.7,18525.1C15723.6,18676.1 15687.2,18827 15650.2,18977.7C15597.6,19191.9 15544,19599 15490.9,19599Z" style="fill:rgb(239,110,35);"/>
                </g>
                <g transform="matrix(-0.219792,-0.058893,0.143624,-0.536014,15020.2,94329)">
                    <path d="M15490.9,19599C15437.8,19599 15384.2,19191.9 15331.6,18977.7C15294.6,18827 15258.2,18676.1 15222.1,18525.1C15209.7,18472.9 15197.9,18420.5 15186,18368.1C15179.6,18339.7 15171,18309.6 15172.5,18280.1C15174.8,18233.4 15188.5,18186.3 15210.9,18145.3C15232.1,18106.5 15260.9,18071.9 15296,18045C15324.6,18022.9 15357.2,18006 15391.5,17994.7C15439.5,17978.9 15491.4,17974 15541.4,17981.7C15654.9,17999.1 15752.5,18082.3 15791.2,18189.9C15804,18225.4 15812,18264.7 15808.7,18302.4C15807,18323.4 15800.1,18349.1 15795.8,18368.1C15783.8,18420.5 15772.2,18472.9 15759.7,18525.1C15723.6,18676.1 15687.2,18827 15650.2,18977.7C15597.6,19191.9 15544,19599 15490.9,19599Z" style="fill:rgb(239,110,35);"/>
                </g>
                <g transform="matrix(-0.227545,-6.245e-17,6.10623e-16,-0.554922,17955.2,93787.3)">
                    <path d="M15490.9,19599C15437.8,19599 15384.2,19191.9 15331.6,18977.7C15294.6,18827 15258.2,18676.1 15222.1,18525.1C15209.7,18472.9 15197.9,18420.5 15186,18368.1C15179.6,18339.7 15171,18309.6 15172.5,18280.1C15174.8,18233.4 15188.5,18186.3 15210.9,18145.3C15232.1,18106.5 15260.9,18071.9 15296,18045C15324.6,18022.9 15357.2,18006 15391.5,17994.7C15439.5,17978.9 15491.4,17974 15541.4,17981.7C15654.9,17999.1 15752.5,18082.3 15791.2,18189.9C15804,18225.4 15812,18264.7 15808.7,18302.4C15807,18323.4 15800.1,18349.1 15795.8,18368.1C15783.8,18420.5 15772.2,18472.9 15759.7,18525.1C15723.6,18676.1 15687.2,18827 15650.2,18977.7C15597.6,19191.9 15544,19599 15490.9,19599Z" style="fill:rgb(239,110,35);"/>
                </g>
                <g transform="matrix(-0.219792,0.058893,-0.143624,-0.536014,20650,92504.4)">
                    <path d="M15490.9,19599C15437.8,19599 15384.2,19191.9 15331.6,18977.7C15294.6,18827 15258.2,18676.1 15222.1,18525.1C15209.7,18472.9 15197.9,18420.5 15186,18368.1C15179.6,18339.7 15171,18309.6 15172.5,18280.1C15174.8,18233.4 15188.5,18186.3 15210.9,18145.3C15232.1,18106.5 15260.9,18071.9 15296,18045C15324.6,18022.9 15357.2,18006 15391.5,17994.7C15439.5,17978.9 15491.4,17974 15541.4,17981.7C15654.9,17999.1 15752.5,18082.3 15791.2,18189.9C15804,18225.4 15812,18264.7 15808.7,18302.4C15807,18323.4 15800.1,18349.1 15795.8,18368.1C15783.8,18420.5 15772.2,18472.9 15759.7,18525.1C15723.6,18676.1 15687.2,18827 15650.2,18977.7C15597.6,19191.9 15544,19599 15490.9,19599Z" style="fill:rgb(239,110,35);"/>
                </g>
                <g transform="matrix(-0.19706,0.113772,-0.277461,-0.480577,22921,90567.8)">
                    <path d="M15490.9,19599C15437.8,19599 15384.2,19191.9 15331.6,18977.7C15294.6,18827 15258.2,18676.1 15222.1,18525.1C15209.7,18472.9 15197.9,18420.5 15186,18368.1C15179.6,18339.7 15171,18309.6 15172.5,18280.1C15174.8,18233.4 15188.5,18186.3 15210.9,18145.3C15232.1,18106.5 15260.9,18071.9 15296,18045C15324.6,18022.9 15357.2,18006 15391.5,17994.7C15439.5,17978.9 15491.4,17974 15541.4,17981.7C15654.9,17999.1 15752.5,18082.3 15791.2,18189.9C15804,18225.4 15812,18264.7 15808.7,18302.4C15807,18323.4 15800.1,18349.1 15795.8,18368.1C15783.8,18420.5 15772.2,18472.9 15759.7,18525.1C15723.6,18676.1 15687.2,18827 15650.2,18977.7C15597.6,19191.9 15544,19599 15490.9,19599Z" style="fill:rgb(239,110,35);"/>
                </g>
                <g transform="matrix(-0.160899,0.160899,-0.392389,-0.392389,24613.3,88109.4)">
                    <path d="M15490.9,19599C15437.8,19599 15384.2,19191.9 15331.6,18977.7C15294.6,18827 15258.2,18676.1 15222.1,18525.1C15209.7,18472.9 15197.9,18420.5 15186,18368.1C15179.6,18339.7 15171,18309.6 15172.5,18280.1C15174.8,18233.4 15188.5,18186.3 15210.9,18145.3C15232.1,18106.5 15260.9,18071.9 15296,18045C15324.6,18022.9 15357.2,18006 15391.5,17994.7C15439.5,17978.9 15491.4,17974 15541.4,17981.7C15654.9,17999.1 15752.5,18082.3 15791.2,18189.9C15804,18225.4 15812,18264.7 15808.7,18302.4C15807,18323.4 15800.1,18349.1 15795.8,18368.1C15783.8,18420.5 15772.2,18472.9 15759.7,18525.1C15723.6,18676.1 15687.2,18827 15650.2,18977.7C15597.6,19191.9 15544,19599 15490.9,19599Z" style="fill:rgb(239,110,35);"/>
                </g>
                <g transform="matrix(-0.113772,0.19706,-0.480577,-0.277461,25611.6,85296.7)">
                    <path d="M15490.9,19599C15437.8,19599 15384.2,19191.9 15331.6,18977.7C15294.6,18827 15258.2,18676.1 15222.1,18525.1C15209.7,18472.9 15197.9,18420.5 15186,18368.1C15179.6,18339.7 15171,18309.6 15172.5,18280.1C15174.8,18233.4 15188.5,18186.3 15210.9,18145.3C15232.1,18106.5 15260.9,18071.9 15296,18045C15324.6,18022.9 15357.2,18006 15391.5,17994.7C15439.5,17978.9 15491.4,17974 15541.4,17981.7C15654.9,17999.1 15752.5,18082.3 15791.2,18189.9C15804,18225.4 15812,18264.7 15808.7,18302.4C15807,18323.4 15800.1,18349.1 15795.8,18368.1C15783.8,18420.5 15772.2,18472.9 15759.7,18525.1C15723.6,18676.1 15687.2,18827 15650.2,18977.7C15597.6,19191.9 15544,19599 15490.9,19599Z" style="fill:rgb(239,110,35);"/>
                </g>
                <g transform="matrix(-0.058893,0.219792,-0.536014,-0.143624,25848,82321.5)">
                    <path d="M15490.9,19599C15437.8,19599 15384.2,19191.9 15331.6,18977.7C15294.6,18827 15258.2,18676.1 15222.1,18525.1C15209.7,18472.9 15197.9,18420.5 15186,18368.1C15179.6,18339.7 15171,18309.6 15172.5,18280.1C15174.8,18233.4 15188.5,18186.3 15210.9,18145.3C15232.1,18106.5 15260.9,18071.9 15296,18045C15324.6,18022.9 15357.2,18006 15391.5,17994.7C15439.5,17978.9 15491.4,17974 15541.4,17981.7C15654.9,17999.1 15752.5,18082.3 15791.2,18189.9C15804,18225.4 15812,18264.7 15808.7,18302.4C15807,18323.4 15800.1,18349.1 15795.8,18368.1C15783.8,18420.5 15772.2,18472.9 15759.7,18525.1C15723.6,18676.1 15687.2,18827 15650.2,18977.7C15597.6,19191.9 15544,19599 15490.9,19599Z" style="fill:rgb(239,110,35);"/>
                </g>
            </g>
        </g>
    </g>
</svg>
