<?xml version="1.0" encoding="UTF-8" standalone="no"?>
<!DOCTYPE svg PUBLIC "-//W3C//DTD SVG 1.1//EN" "http://www.w3.org/Graphics/SVG/1.1/DTD/svg11.dtd">
<svg width="100%" height="100%" viewBox="0 0 8268 8268" version="1.1" xmlns="http://www.w3.org/2000/svg" xmlns:xlink="http://www.w3.org/1999/xlink" xml:space="preserve" xmlns:serif="http://www.serif.com/" style="fill-rule:evenodd;clip-rule:evenodd;stroke-linejoin:round;stroke-miterlimit:2;">
    <g transform="matrix(1,0,0,1,-124849,-53267.3)">
        <g id="mcr_roundal_orange" transform="matrix(0.60112,0,0,0.278179,70203.5,53267.3)">
            <rect x="90905.5" y="0" width="13753.9" height="29720.8" style="fill:none;"/>
            <g transform="matrix(15.5129,0,0,33.522,-230609,-848184)">
                <path d="M21168.9,25382.9C21369.1,25382.9 21531.6,25545.5 21531.6,25745.6C21531.6,25945.8 21369.1,26108.3 21168.9,26108.3C20968.7,26108.3 20806.2,25945.8 20806.2,25745.6C20806.2,25545.5 20968.7,25382.9 21168.9,25382.9ZM21005.6,25464L20992.2,25472.2C20990.7,25473.1 20990.5,25475.5 20991.8,25477.6L21024.5,25531C21025.8,25533.1 21028.1,25534 21029.6,25533.1L21043,25524.8C21044.5,25523.9 21044.7,25521.5 21043.4,25519.4L21010.6,25466C21009.3,25463.9 21007.1,25463 21005.6,25464ZM21474.6,25739.1C21477.1,25739.1 21479.1,25742.2 21479.2,25746.5C21479.2,25755.2 21477,25760.9 21475.1,25764.2C21473.9,25766.3 21474.4,25768.5 21476.7,25769.3L21483.4,25771.9C21485.7,25772.7 21488.6,25771.8 21489.6,25769.7C21491.8,25764.9 21495.1,25756.6 21495,25747.1C21495,25727.6 21489,25716.2 21473.4,25716.3C21452.7,25716.4 21448,25752.8 21442.2,25752.8C21439.6,25752.8 21438,25749.7 21438,25744.9C21438,25734.3 21441.4,25727.3 21446,25721.8C21447.5,25720 21447.1,25717.8 21444.9,25717L21437.1,25714C21434.8,25713.1 21431.7,25714 21430.4,25716C21427.2,25721 21422.1,25731.1 21422.1,25743.6C21422.2,25763.3 21431.8,25775.7 21444.7,25775.7C21465,25775.6 21468.2,25739.1 21474.6,25739.1ZM21401.9,25517.2C21387.4,25502.3 21363.9,25501.7 21349.4,25515.9C21334.9,25530.1 21335,25553.7 21349.6,25568.5C21364,25583.3 21387.6,25583.8 21402.1,25569.6C21416.6,25555.4 21416.4,25531.9 21401.9,25517.2ZM21360.9,25557.4C21354.1,25550.5 21355.3,25538.4 21363.5,25530.3C21371.7,25522.3 21383.9,25521.3 21390.7,25528.2C21397.4,25535.1 21396.2,25547.2 21388,25555.2C21379.7,25563.3 21367.6,25564.3 21360.9,25557.4ZM21077.7,25432.1L21071.1,25434.6C21068.8,25435.4 21067.7,25437.9 21068.6,25440.2L21076.7,25461.9C21077.6,25464.1 21076.6,25464.9 21074.6,25463.7L21047.5,25447.2C21045.4,25445.9 21041.9,25445.6 21039.6,25446.5L21030.2,25450C21027.9,25450.9 21026.8,25453.4 21027.7,25455.7L21049.8,25514.3C21050.7,25516.6 21053.2,25517.7 21055.5,25516.8L21062.1,25514.4C21064.3,25513.5 21065.4,25511 21064.6,25508.7L21053.1,25478.3C21052.2,25476 21053.2,25475.1 21055.3,25476.4L21092.3,25499.2C21094.4,25500.5 21097.9,25500.8 21100.1,25500L21103,25498.9C21105.3,25498 21106.5,25495.7 21105.7,25493.6L21083.4,25434.6C21082.5,25432.3 21080,25431.2 21077.7,25432.1ZM21337,25969.7C21335.7,25968 21336.7,25964.9 21339.7,25962.5C21345.8,25957.8 21351.1,25956.2 21354.4,25955.7C21356.5,25955.4 21357.8,25953.9 21357.1,25951.9L21355.3,25945.7C21354.6,25943.6 21352.4,25942.1 21350.4,25942.6C21345.8,25943.6 21338.2,25945.8 21331.5,25951C21317.8,25961.7 21313.1,25972.1 21321.6,25983C21332.9,25997.5 21361.1,25981 21364.3,25985C21365.7,25986.9 21364.3,25989.7 21361,25992.3C21353.6,25998.1 21346.8,25999.5 21340.4,25999.3C21338.3,25999.2 21337,26000.6 21337.6,26002.7L21339.7,26009.8C21340.4,26011.8 21342.6,26013.5 21344.8,26013.4C21350.1,26012.9 21359.9,26011 21368.7,26004.2C21382.5,25993.4 21386,25980 21379,25970.9C21367.9,25956.6 21340.5,25974.2 21337,25969.7ZM21114.3,26059.2L21112,26053.4C21111.2,26051.4 21108.9,26050.4 21106.8,26050.8C21103.9,26051.4 21100.8,26051.3 21097.8,26050.5C21092.8,26049.2 21089.3,26046.5 21087.5,26042.4C21085.8,26038.6 21085.5,26033.7 21086.8,26028.9C21089.1,26020 21096.4,26011.8 21107.1,26014.5C21110.1,26015.3 21112.9,26016.7 21115.2,26018.6C21116.8,26020 21119.3,26020.2 21120.9,26018.9L21125.7,26014.9C21127.4,26013.5 21127.7,26011 21126.1,26009.6C21121.8,26005.4 21116.5,26002.5 21110.6,26001L21109,26000.5C21097.1,25997.9 21088.5,26001.2 21083.3,26004.5C21076.2,26009 21071.2,26016 21069.1,26024.2C21067,26032.4 21068,26040.9 21072,26047.9C21074.9,26053.2 21080.8,26060.1 21092.5,26063.6L21094.3,26064C21100.2,26065.6 21106.2,26065.6 21112,26064C21114.1,26063.5 21115,26061.2 21114.3,26059.2ZM21355.2,25477.3L21341.5,25469.4C21340,25468.5 21337.7,25469.5 21336.5,25471.6L21326.6,25488.9C21325.3,25491 21322.7,25491.8 21320.6,25490.5L21312.6,25485.9C21310.4,25484.7 21309.7,25482.1 21310.9,25479.9L21320.9,25462.6C21322.1,25460.5 21321.9,25458.1 21320.3,25457.2L21306.7,25449.4C21305.2,25448.5 21303,25449.5 21301.7,25451.6L21270.5,25505.9C21269.3,25508 21269.5,25510.4 21271.1,25511.3L21284.7,25519.2C21286.2,25520 21288.4,25519.1 21289.7,25516.9L21298.6,25501.3C21299.9,25499.2 21302.6,25498.5 21304.7,25499.7L21312.6,25504.3C21314.8,25505.5 21315.5,25508.2 21314.3,25510.3L21305.3,25525.9C21304.1,25528 21304.3,25530.4 21305.8,25531.3L21319.6,25539.2C21321.1,25540.1 21323.2,25539.1 21324.4,25536.9L21355.7,25482.6C21356.9,25480.5 21356.7,25478.2 21355.2,25477.3ZM21265.2,26054.8L21253.1,26040.3C21251.7,26038.7 21251.2,26036.8 21251.8,26036L21252.9,26034.6C21256.3,26029.8 21257.5,26024.1 21256.2,26018.4C21254.9,26012.6 21251.2,26007.6 21245.9,26004.5C21241.9,26002.2 21235.2,25999.9 21225.8,26002L21201.9,26007.3C21200.4,26007.6 21199.6,26009.6 21200,26011.7L21212.1,26066.1C21212.6,26068.2 21214.6,26069.5 21216.7,26069.1L21228.3,26066.5C21230.4,26066 21231.7,26064 21231.3,26061.8L21228.7,26050.3C21228.2,26048.2 21228.9,26046.2 21230.2,26046C21231.4,26045.7 21233.5,26046.8 21234.9,26048.4L21244.2,26059.4C21245.6,26061.1 21248.5,26062 21250.6,26061.6L21263.9,26058.6C21266,26058.1 21266.6,26056.4 21265.2,26054.8ZM21237.9,26027.9C21237.1,26029.4 21235.8,26030.4 21233.5,26030.9L21228.7,26031.9C21226.5,26032.4 21224.4,26031 21224,26029L21222.3,26021.2C21221.8,26019.1 21223.1,26017 21225.1,26016.5L21228.9,26015.7C21231.5,26015.1 21237,26015.7 21238.5,26022.6C21238.9,26024.5 21238.7,26026.4 21237.9,26027.9ZM21432,25875.8C21431.6,25876.3 21431.3,25876.9 21430.9,25877.4C21430.2,25878.5 21429.6,25879.5 21429.1,25880.6C21428.7,25881.5 21428.1,25882.2 21427.2,25882.6C21426.9,25882.7 21426.5,25882.7 21426.1,25882.8C21424.7,25882.8 21423.2,25883 21421.7,25883.3C21421,25883.5 21420.2,25883.6 21419.4,25883.6C21419,25883.6 21418.6,25883.7 21418.3,25883.7C21417.9,25883.7 21417.5,25883.8 21417.1,25883.9C21416.7,25883.9 21416.3,25883.9 21415.9,25884C21415.3,25884.1 21414.8,25884.1 21414.3,25884.1C21414.1,25884.1 21413.9,25883.9 21413.7,25883.8C21413.9,25883 21414.2,25882.2 21414.7,25881.5C21415.3,25880.3 21416.1,25879.3 21416.9,25878.2C21417.8,25877.1 21418.7,25876 21419.7,25874.9C21421,25873.4 21422.4,25872 21423.9,25870.7C21425.1,25869.4 21426.3,25868.2 21427.4,25866.8C21428.4,25865.6 21429.3,25864.3 21430.1,25862.9C21431.5,25860.6 21432.5,25858.1 21433,25855.6C21433.4,25853.7 21433.3,25851.7 21432.8,25849.8C21432.5,25849.1 21432.1,25848.5 21431.8,25847.8C21430.8,25845.5 21429.1,25843.6 21426.9,25842.3C21426.1,25841.8 21425.4,25841.4 21424.5,25841.2C21423.9,25841 21423.3,25840.9 21422.7,25840.8C21421.7,25840.6 21420.7,25840.6 21419.7,25840.7C21419,25840.9 21418.2,25841 21417.4,25841C21416,25841.1 21414.6,25841.7 21413.5,25842.5C21412.6,25843.2 21411.7,25844 21411,25844.8C21409.1,25847.1 21407.9,25849.7 21408,25852.7L21408,25853.3C21408.1,25853.7 21408.1,25854.2 21408.2,25854.6C21409,25857.4 21408.9,25857.1 21410.5,25858.9C21411.1,25859.6 21411.9,25860 21412.7,25860.3C21413.6,25860.3 21414.4,25860 21415.1,25859.4C21416,25858.5 21416.3,25857.3 21416.3,25856.3C21416.2,25854.5 21415.6,25853.1 21415.1,25851.7C21414.9,25851 21414.6,25850.3 21414.3,25849.7C21414.1,25848.5 21414,25847.3 21414.1,25846.2L21415.6,25844.6C21416,25844.4 21416.4,25844.2 21416.8,25844.1C21418.1,25843.4 21419.7,25843.4 21421.1,25844C21422.1,25844.4 21422.9,25845.1 21423.6,25846C21424.2,25846.8 21424.6,25847.5 21424.9,25848.4C21425.6,25850 21426,25851.8 21426.1,25853.6C21426.1,25854.2 21426.2,25854.7 21426.2,25855.4C21426.1,25856.1 21426.1,25856.7 21425.9,25857.4C21425.6,25858.6 21425.4,25859.8 21425,25861C21424.4,25863 21423.4,25865 21422.3,25867C21422,25867.5 21421.7,25868 21421.4,25868.4C21420.5,25869.5 21419.6,25870.5 21418.6,25871.6C21417.3,25873.1 21415.8,25874.6 21414.3,25876C21413.1,25877.3 21411.9,25878.7 21410.9,25880.2C21410.1,25881.4 21409.5,25882.6 21409.2,25883.9C21408.9,25884.7 21408.7,25885.5 21408.7,25886.3C21408.6,25887.4 21408.4,25888.4 21408.2,25889.4C21408.2,25889.8 21408.2,25890.3 21408.5,25890.6C21408.7,25890.7 21408.9,25890.8 21409.1,25890.8C21409.3,25890.8 21409.6,25890.8 21409.8,25890.8C21410.9,25890.8 21412,25890.8 21413.1,25890.8C21414.3,25890.6 21415.6,25890.6 21416.8,25890.6L21423.1,25890.6C21423.7,25890.6 21424.4,25890.6 21424.9,25890.8C21425.7,25891.1 21426.5,25891.3 21427.5,25891.6C21428.3,25891.6 21429,25891.1 21429.3,25890.3C21429.6,25889.8 21429.9,25889.3 21430.1,25888.8C21430.7,25887.7 21431.2,25886.6 21431.6,25885.4C21432.2,25883.7 21432.8,25882 21433.4,25880.3C21433.6,25879.7 21433.7,25879 21433.9,25878.3C21434,25877.8 21434,25877.2 21434,25876.6L21433.5,25875.8C21433,25875.7 21432.5,25875.7 21432,25875.8ZM20992,26016.7L20995.4,25998.1C20995.8,25996 20996.9,25994.5 20997.9,25994.5L20999.7,25994.4C21005.6,25994 21010.7,25991.2 21014.3,25986.6C21017.9,25981.9 21019.5,25975.8 21018.4,25969.7C21017.7,25965.2 21015.1,25958.6 21007.6,25952.7L20988.3,25937.7C20987.1,25936.7 20985,25937.3 20983.7,25939L20949.4,25982.9C20948.1,25984.7 20948.4,25987.1 20950.1,25988.4L20959.4,25995.7C20961.1,25997.1 20963.6,25996.8 20964.9,25995L20972.2,25985.7C20973.5,25984 20975.5,25983.3 20976.5,25984.1C20977.5,25984.9 20977.9,25987.2 20977.6,25989.3L20975,26003.5C20974.6,26005.6 20975.7,26008.4 20977.4,26009.8L20988.2,26018.2C20989.9,26019.5 20991.6,26018.8 20992,26016.7ZM20995.3,25978.6C20993.6,25978.9 20992,25978.5 20990.2,25977.1L20986.3,25974C20984.6,25972.6 20984.3,25970.1 20985.6,25968.5L20990.5,25962.2C20991.8,25960.5 20994.3,25960.2 20996,25961.4L20999,25963.8C21001.1,25965.5 21004.1,25970.1 20999.8,25975.6C20998.6,25977.2 20996.9,25978.2 20995.3,25978.6ZM20858.4,25644.7C20852,25664.5 20862.3,25685.6 20881.6,25691.9C20900.9,25698.2 20921.8,25687.2 20928.2,25667.4C20934.6,25647.8 20924.1,25626.6 20904.9,25620.3C20885.6,25614.1 20864.8,25625.1 20858.4,25644.7ZM20913.1,25662.5C20910.1,25671.8 20898.8,25676.3 20887.8,25672.7C20876.9,25669.2 20870.4,25658.9 20873.4,25649.6C20876.4,25640.5 20887.7,25636 20898.6,25639.5C20909.6,25643.1 20916.1,25653.4 20913.1,25662.5ZM20844.3,25706.3L20844,25716.1C20844,25718.6 20845.5,25721.6 20847.5,25722.9L20865.4,25734.6C20867.4,25735.8 20867.3,25738 20865.3,25739.3L20846.9,25750.8C20844.8,25752.1 20843.1,25755.1 20843,25757.6L20842.7,25768.7C20842.7,25771.2 20844.6,25773.2 20847,25773.2L20909.7,25774.8C20912.1,25774.8 20914.1,25772.9 20914.2,25770.5L20914.3,25763.4C20914.4,25761.1 20912.5,25759.1 20910,25759L20883.6,25758.4C20881.2,25758.3 20880.9,25757.3 20883,25756L20902.7,25744.7C20904.8,25743.5 20904.8,25741.5 20902.8,25740.2L20883.2,25727.3C20881.2,25725.9 20881.5,25724.9 20883.9,25725L20910.9,25725.7C20913.3,25725.7 20915.3,25723.8 20915.4,25721.4L20915.7,25708.1C20915.8,25705.6 20913.9,25703.6 20911.4,25703.5L20848.8,25702C20846.3,25702 20844.3,25703.8 20844.3,25706.3ZM21268.2,25499.1L21265.8,25492.6C21264.9,25490.4 21262.4,25489.2 21260,25489.6C21256.7,25490.2 21253.3,25490 21249.9,25489C21244.3,25487.4 21240.5,25484.4 21238.5,25479.7C21236.6,25475.4 21236.5,25469.8 21238,25464.5C21240.7,25454.6 21249.1,25445.4 21261.2,25448.8C21264.5,25449.7 21267.6,25451.3 21270.1,25453.6C21271.9,25455.1 21274.7,25455.5 21276.6,25454L21282.1,25449.7C21284,25448.1 21284.4,25445.3 21282.6,25443.6C21277.9,25438.8 21272,25435.5 21265.4,25433.6L21263.5,25433.1C21250.3,25429.9 21240.5,25433.4 21234.6,25437C21226.5,25441.9 21220.8,25449.6 21218.2,25458.9C21215.6,25468 21216.5,25477.6 21220.9,25485.6C21224.1,25491.6 21230.6,25499.5 21243.7,25503.6L21245.7,25504.2C21252.3,25506 21259,25506.2 21265.5,25504.6C21267.9,25504.1 21269,25501.5 21268.2,25499.1ZM21049,26034.5L21032.2,26026.2C21030.4,26025.3 21029.5,26022.8 21030.5,26021L21031.3,26019.2C21032.3,26017.3 21034.7,26016.5 21036.6,26017.4L21040.3,26019.2C21042.1,26020.1 21045,26019.8 21046.6,26018.4L21052,26013.4C21053.6,26012 21053.4,26010 21051.4,26009.1L21042.8,26004.8C21040.9,26003.9 21040,26001.5 21041,25999.6L21042.7,25996.2C21043.6,25994.3 21046,25993.5 21047.9,25994.4L21059.8,26000.2C21061.6,26001.1 21064.5,26000.8 21066.1,25999.4L21071.5,25994.4C21073.1,25993 21072.9,25991.1 21070.9,25990.1L21035.5,25972.6C21034.1,25972 21032.2,25972.9 21031.2,25974.9L21006.6,26024.9C21005.7,26026.8 21006.1,26028.9 21007.4,26029.6L21037.7,26044.5C21039.7,26045.5 21042.5,26045.1 21044.1,26043.6L21049.6,26038.7C21051.2,26037.3 21050.9,26035.4 21049,26034.5ZM21162.8,26007.3C21144.3,26006.9 21129,26021.1 21128.6,26039.1C21128.2,26057.1 21142.8,26072.1 21161.3,26072.5C21179.7,26072.9 21195,26058.6 21195.5,26040.6C21195.9,26022.6 21181.2,26007.7 21162.8,26007.3ZM21161.6,26058.4C21153,26058.2 21146.3,26049.8 21146.5,26039.5C21146.7,26029.3 21153.9,26021.1 21162.5,26021.3C21171,26021.5 21177.8,26030 21177.5,26040.2C21177.3,26050.5 21170.2,26058.6 21161.6,26058.4ZM21168.9,25524C21046.6,25524 20947.2,25623.3 20947.2,25745.6C20947.2,25868 21046.6,25967.3 21168.9,25967.3C21291.2,25967.3 21390.6,25868 21390.6,25745.6C21390.6,25623.3 21291.2,25524 21168.9,25524ZM20899,25875.8C20898.7,25876.3 20898.3,25876.9 20897.9,25877.4C20897.2,25878.5 20896.7,25879.5 20896.1,25880.6C20895.7,25881.5 20895.1,25882.2 20894.2,25882.6C20893.9,25882.7 20893.5,25882.7 20893.2,25882.8C20891.7,25882.8 20890.2,25883 20888.8,25883.3C20888,25883.5 20887.2,25883.6 20886.4,25883.6C20886,25883.6 20885.6,25883.7 20885.3,25883.7C20884.9,25883.7 20884.5,25883.8 20884.1,25883.9C20883.7,25883.9 20883.3,25883.9 20882.9,25884C20882.4,25884.1 20881.8,25884.1 20881.3,25884.1C20881.1,25884.1 20881,25883.9 20880.7,25883.8C20881,25883 20881.2,25882.2 20881.7,25881.5C20882.4,25880.3 20883.2,25879.3 20883.9,25878.2C20884.8,25877.1 20885.7,25876 20886.7,25874.9C20888.1,25873.4 20889.5,25872 20890.9,25870.7C20892.2,25869.4 20893.3,25868.2 20894.4,25866.8C20895.5,25865.6 20896.4,25864.3 20897.2,25862.9C20898.6,25860.6 20899.6,25858.1 20900.1,25855.6C20900.4,25853.7 20900.4,25851.7 20899.8,25849.8C20899.5,25849.1 20899.1,25848.5 20898.8,25847.8C20897.8,25845.5 20896.1,25843.6 20894,25842.3C20893.2,25841.8 20892.4,25841.4 20891.5,25841.2C20890.9,25841 20890.3,25840.9 20889.7,25840.8C20888.8,25840.6 20887.8,25840.6 20886.8,25840.7C20886,25840.9 20885.2,25841 20884.4,25841C20883,25841.1 20881.6,25841.7 20880.5,25842.5C20879.6,25843.2 20878.7,25844 20878,25844.8C20876.1,25847.1 20874.9,25849.7 20875,25852.7L20875,25853.3C20875.1,25853.7 20875.1,25854.2 20875.3,25854.6C20876,25857.4 20875.9,25857.1 20877.5,25858.9C20878.2,25859.6 20878.9,25860 20879.7,25860.3C20880.6,25860.3 20881.4,25860 20882.1,25859.4C20883.1,25858.5 20883.3,25857.3 20883.4,25856.3C20883.2,25854.5 20882.6,25853.1 20882.2,25851.7C20881.9,25851 20881.7,25850.3 20881.4,25849.7C20881.1,25848.5 20881,25847.3 20881.2,25846.2L20882.7,25844.6C20883.1,25844.4 20883.4,25844.2 20883.8,25844.1C20885.1,25843.4 20886.7,25843.4 20888.1,25844C20889.1,25844.4 20890,25845.1 20890.6,25846C20891.2,25846.8 20891.6,25847.5 20892,25848.4C20892.7,25850 20893,25851.8 20893.1,25853.6C20893.2,25854.2 20893.2,25854.7 20893.2,25855.4C20893.2,25856.1 20893.1,25856.7 20893,25857.4C20892.6,25858.6 20892.4,25859.8 20892,25861C20891.4,25863 20890.5,25865 20889.3,25867C20889.1,25867.5 20888.8,25868 20888.4,25868.4C20887.5,25869.5 20886.6,25870.5 20885.6,25871.6C20884.3,25873.1 20882.8,25874.6 20881.4,25876C20880.1,25877.3 20879,25878.7 20878,25880.2C20877.2,25881.4 20876.5,25882.6 20876.2,25883.9C20876,25884.7 20875.8,25885.5 20875.7,25886.3C20875.6,25887.4 20875.5,25888.4 20875.3,25889.4C20875.2,25889.8 20875.3,25890.3 20875.5,25890.6C20875.7,25890.7 20875.9,25890.8 20876.1,25890.8C20876.3,25890.8 20876.6,25890.8 20876.8,25890.8C20878,25890.8 20879,25890.8 20880.2,25890.8C20881.4,25890.6 20882.6,25890.6 20883.8,25890.6L20890.1,25890.6C20890.8,25890.6 20891.4,25890.6 20892,25890.8C20892.8,25891.1 20893.5,25891.3 20894.5,25891.6C20895.3,25891.6 20896,25891.1 20896.4,25890.3C20896.7,25889.8 20896.9,25889.3 20897.2,25888.8C20897.7,25887.7 20898.2,25886.6 20898.7,25885.4C20899.2,25883.7 20899.9,25882 20900.4,25880.3C20900.6,25879.7 20900.8,25879 20900.9,25878.3C20901,25877.8 20901,25877.2 20901.1,25876.6L20900.5,25875.8C20900,25875.7 20899.5,25875.7 20899,25875.8ZM21302.4,25984.3C21294.4,25980.7 21285.5,25981 21277,25985L21258.5,25993.7C21257.1,25994.3 21256.7,25996.4 21257.6,25998.4L21281.4,26048.8C21282.3,26050.8 21284.2,26051.8 21285.6,26051.1L21304,26042.5C21312.6,26038.4 21318.4,26031.8 21320.8,26023.3C21322.8,26016 21322.1,26007.9 21318.6,26000.5C21315.1,25993.1 21309.3,25987.3 21302.4,25984.3ZM21304.2,26021.5C21303.5,26025.4 21301.5,26028.1 21298.1,26029.8L21296.4,26030.6C21295.6,26030.9 21294.1,26029.6 21293.2,26027.7L21281.4,26002.7C21280.5,26000.8 21280.5,25998.8 21281.3,25998.4L21282.9,25997.7C21292.1,25993.4 21299.4,26002.8 21302,26008.3C21304.1,26012.7 21305,26017.6 21304.2,26021.5ZM21454.2,25888L21454,25887.6C21453.5,25887 21453.2,25886.3 21453.1,25885.5C21453.1,25885.4 21453.1,25885.2 21453,25885C21452.9,25884.2 21452.7,25883.4 21452.7,25882.7C21452.6,25880.3 21452.7,25878 21452.7,25875.6C21452.7,25874.8 21452.8,25874.1 21452.7,25873.4C21452.7,25872 21452.7,25870.7 21452.7,25869.3C21452.7,25868.7 21452.7,25868 21452.7,25867.4C21452.9,25866.4 21452.9,25865.4 21452.8,25864.4L21452.8,25862.4C21452.9,25861.1 21452.9,25859.8 21452.9,25858.5L21452.9,25846.3C21452.9,25844.8 21452.9,25843.4 21452.9,25841.7C21452.9,25841.3 21452.7,25841 21452.4,25840.8L21451.1,25840.8C21448.5,25842.3 21446,25843.9 21443.5,25845.6C21443.4,25845.8 21443.4,25846 21443.3,25846.2L21443.6,25847.1C21444.6,25847.5 21445.3,25848.3 21445.5,25849.2C21445.5,25849.5 21445.6,25849.8 21445.6,25850.1C21445.8,25851 21445.8,25851.9 21445.8,25852.8L21445.8,25853.4C21445.8,25854.7 21445.8,25856.1 21446,25857.4C21446.1,25858.8 21446.1,25860.1 21446,25861.5C21446,25863.4 21446,25865.3 21446,25867.2L21446,25871.2C21446.1,25872.7 21446.1,25874.3 21446.3,25875.8C21446.3,25876.9 21446,25878 21446.3,25879.1C21446.3,25879.3 21446.2,25879.5 21446.2,25879.6L21446.2,25882.2C21446.1,25883 21446.1,25883.7 21446,25884.4C21446,25885.2 21446,25886.1 21446,25886.9C21445.6,25887.5 21445.1,25888.1 21444.4,25888.5C21442.9,25888.3 21441.4,25888.6 21440,25889.3L21440,25890.3L21440.8,25890.9L21442.5,25890.9C21444.5,25890.8 21446.5,25890.8 21448.5,25890.8C21451.3,25890.8 21454.1,25890.8 21456.9,25890.8C21457.6,25890.8 21458.3,25890.6 21458.8,25890.3C21459,25890.3 21459.1,25890.2 21459.1,25890.1L21459.1,25889.3L21458.1,25888.6C21456.9,25888.9 21455.4,25888.6 21454.2,25888ZM20968.7,25487.8L20963.4,25492.6C20961.6,25494.2 20961.5,25497 20963.2,25498.8L20978.7,25515.9C20980.3,25517.6 20979.7,25518.8 20977.4,25518.4L20946.1,25513.1C20943.7,25512.6 20940.4,25513.6 20938.5,25515.2L20931.1,25522C20929.3,25523.6 20929.2,25526.4 20930.8,25528.2L20973,25574.5C20974.7,25576.4 20977.4,25576.5 20979.2,25574.8L20984.4,25570.1C20986.2,25568.5 20986.3,25565.7 20984.7,25563.9L20962.7,25539.9C20961.1,25538 20961.7,25536.9 20964.2,25537.3L21006.9,25544.9C21009.4,25545.3 21012.8,25544.3 21014.5,25542.7L21016.8,25540.6C21018.6,25539 21018.9,25536.4 21017.3,25534.7L20974.9,25488.1C20973.2,25486.3 20970.5,25486.2 20968.7,25487.8ZM20934.9,25860.1C20934.9,25859.7 20934.9,25859.3 20934.8,25858.9C20934.7,25857.7 20934.5,25856.6 20934.3,25855.5C20934,25853.3 20933.1,25851.4 20932.3,25849.4C20932.1,25848.8 20931.7,25848.2 20931.4,25847.6C20930.9,25846.7 20930.4,25845.9 20929.7,25845.1C20928.9,25843.8 20927.7,25842.7 20926.3,25842C20926.1,25841.9 20925.9,25841.8 20925.7,25841.7C20924.6,25840.9 20923.2,25840.4 20921.8,25840.4L20921.5,25840.4C20920.1,25840.5 20918.8,25841 20917.7,25841.7C20917.1,25842.1 20916.5,25842.6 20915.9,25843.1C20915.7,25843.2 20915.6,25843.4 20915.4,25843.6C20915.2,25843.9 20915,25844.1 20914.8,25844.4C20913.9,25845.6 20913.2,25846.8 20912.4,25848L20910.9,25851.6C20910.2,25853.9 20909.6,25856.3 20909.3,25858.7C20909.2,25859.8 20909.1,25860.8 20909,25861.8C20909,25862.5 20908.9,25863.3 20908.8,25864C20908.8,25864.8 20908.8,25865.5 20908.9,25866.3C20909,25868.1 20909,25869.9 20909.2,25871.7L20909.2,25871.9C20909.5,25873.4 20909.7,25874.9 20910.1,25876.4C20910.7,25878.7 20911.2,25881 20912.4,25883.1C20912.8,25884 20913.4,25885 20913.9,25885.9C20914.9,25887.4 20916.3,25888.7 20917.8,25889.7C20920.3,25891.3 20922.7,25891.2 20925.3,25890C20926.2,25889.5 20927.2,25889 20928,25888.4C20929,25887.8 20929.8,25886.9 20930.4,25885.9C20930.8,25885.1 20931.2,25884.2 20931.6,25883.2C20932.1,25882.2 20932.6,25881.1 20933.1,25880C20933.4,25878.8 20933.8,25877.5 20933.9,25876.2C20934,25875.8 20934.1,25875.3 20934.1,25874.9C20934.2,25873.9 20934.3,25872.9 20934.5,25871.9C20934.7,25871.4 20934.8,25870.7 20934.8,25870.1C20935,25866.8 20935,25863.4 20934.9,25860.1ZM20919.4,25842.5L20919.3,25842.6L20919.3,25842.5L20919.4,25842.5ZM20910.2,25866L20910.2,25866L20910.3,25866.1L20910.2,25866ZM20925.2,25887.1C20924.1,25888.1 20922.5,25888.4 20921.2,25887.9C20920.8,25887.7 20920.5,25887.6 20920.3,25887.4L20919.4,25886.4C20918.8,25884.9 20918.5,25883.3 20918.5,25881.7C20918.5,25880.7 20918.6,25879.7 20918.9,25878.7C20919.2,25877.7 20919.5,25876.7 20920,25875.8C20920.4,25874.5 20920.9,25873.3 20921.3,25872.1C20921.8,25870.9 20922.1,25869.8 20922.5,25868.7C20922.8,25867.9 20923.2,25867.2 20923.4,25866.4C20923.7,25865.2 20924.3,25864 20924.6,25862.8C20925,25861.5 20925.6,25860.1 20926.1,25858.9C20926.3,25858.3 20926.4,25857.7 20926.6,25857.1C20926.6,25856.9 20926.8,25856.7 20927,25856.6C20927,25857.1 20927.1,25857.5 20927.1,25857.9C20927.1,25859.1 20927.2,25860.3 20927.2,25861.6C20927.4,25862.8 20927.3,25864.1 20927.4,25865.3C20927.4,25866.3 20927.5,25867.4 20927.5,25868.4C20927.6,25869.2 20927.6,25870.2 20927.6,25871C20927.5,25872.4 20927.6,25873.8 20927.7,25875.1C20927.8,25875.3 20927.8,25875.5 20927.8,25875.6C20927.7,25877.9 20927.7,25880.1 20927.5,25882.3C20927.4,25884.2 20926.6,25885.9 20925.2,25887.1ZM20917.2,25875.2C20917.1,25874 20917.3,25872.9 20917,25871.7C20917.3,25868.8 20917.1,25865.8 20917.3,25862.5C20917.2,25862.1 20917.2,25861.7 20917.3,25861.3C20917.4,25860.9 20917.4,25860.5 20917.4,25860.1C20917.3,25858.6 20917.6,25857.2 20917.6,25855.8C20917.7,25855.2 20917.6,25854.7 20917.7,25854.2L20918.1,25850.1C20918.2,25849.3 20918.3,25848.4 20918.3,25847.5C20918.4,25846.9 20918.6,25846.3 20918.9,25845.8C20919.1,25845.6 20919.2,25845.3 20919.3,25845.1C20919.8,25844.2 20920.5,25843.6 20921.4,25843.4L20922,25843.1C20922.3,25843.2 20922.4,25843.3 20922.6,25843.4C20923.5,25843.5 20924.2,25844.1 20924.7,25844.8C20925.7,25846.2 20926.2,25847.9 20925.9,25849.6C20925.9,25850.3 20925.7,25851 20925.5,25851.7C20925.1,25852.7 20924.8,25853.9 20924.5,25854.9C20924.2,25855.7 20923.9,25856.4 20923.6,25857.2C20922.9,25859.4 20922,25861.6 20921.4,25863.9C20921,25864.9 20920.6,25865.9 20920.3,25867C20919.9,25868.1 20919.5,25869.2 20919.2,25870.3C20919.1,25870.9 20918.8,25871.5 20918.6,25872.1C20918.2,25872.8 20917.9,25873.6 20917.7,25874.3C20917.7,25874.6 20917.5,25875 20917.2,25875.2ZM20917.3,25844.7L20917.6,25844.7L20917.6,25844.8L20917.3,25844.8L20917.3,25844.7ZM20931.7,25879.7L20931.7,25879.6L20931.8,25879.7L20931.7,25879.7ZM20970.9,25577.7L20949.7,25575.4C20947.3,25575.2 20945.5,25574.1 20945.4,25572.9L20945.1,25570.9C20944.2,25564.4 20940.6,25558.8 20935.2,25555.2C20929.6,25551.5 20922.7,25550.3 20915.9,25551.9C20910.9,25553.2 20903.7,25556.6 20897.8,25565.6L20882.5,25588.5C20881.5,25589.9 20882.4,25592.2 20884.4,25593.6L20936.6,25628.3C20938.6,25629.6 20941.3,25629.1 20942.7,25627.1L20950,25616C20951.4,25613.9 20950.9,25611.2 20948.8,25609.9L20937.7,25602.5C20935.7,25601.1 20934.8,25599 20935.5,25597.8C20936.3,25596.7 20938.9,25595.9 20941.3,25596.2L20957.5,25597.8C20959.9,25598.1 20962.9,25596.6 20964.3,25594.6L20972.8,25581.8C20974.1,25579.8 20973.3,25578 20970.9,25577.7ZM20927.8,25577.2C20928.3,25579 20927.9,25580.8 20926.5,25583L20923.4,25587.7C20922,25589.7 20919.2,25590.2 20917.3,25588.9L20909.8,25583.9C20907.8,25582.6 20907.2,25579.8 20908.5,25577.9L20910.9,25574.3C20912.6,25571.7 20917.5,25568 20924.1,25572.4C20926,25573.6 20927.3,25575.4 20927.8,25577.2ZM21490.7,25689.6L21488.9,25682.7C21488.3,25680.4 21485.9,25679 21483.5,25679.6L21452.3,25687.7C21441.4,25690.5 21436.2,25690.6 21433.2,25687.9C21431.8,25686.2 21430.8,25683.6 21429.7,25679.9C21428.2,25673.8 21428.2,25669.3 21446.3,25664.6L21477.6,25656.5C21479.9,25655.9 21481.3,25653.5 21480.7,25651.1L21477.4,25638.2C21476.8,25635.9 21474.4,25634.5 21472,25635.1L21440.8,25643.2C21419.1,25648.8 21407.8,25658.1 21414.5,25684.2C21416.4,25691.3 21418.8,25695.6 21421.8,25698.8C21431.4,25709.4 21445.9,25705.6 21456.3,25702.9L21487.5,25694.8C21489.9,25694.2 21491.3,25691.8 21490.7,25689.6ZM21409.5,25647.8L21421.3,25630.1C21422.6,25628 21424.4,25626.9 21425.5,25627.4L21427.4,25628.1C21433.6,25630.2 21440.2,25629.7 21446,25626.5C21451.8,25623.3 21456,25617.6 21457.7,25610.9C21458.9,25605.9 21459.2,25597.9 21454,25588.5L21440.7,25564.4C21439.8,25562.9 21437.4,25562.6 21435.3,25563.7L21380.4,25594C21378.3,25595.2 21377.5,25597.9 21378.7,25600L21385.1,25611.7C21386.3,25613.8 21389,25614.6 21391.1,25613.4L21402.8,25607C21404.9,25605.8 21407.2,25605.9 21407.9,25607.2C21408.6,25608.4 21408.1,25611 21406.7,25613.1L21397.9,25626.6C21396.5,25628.6 21396.4,25632 21397.6,25634.2L21405,25647.6C21406.2,25649.7 21408.2,25649.8 21409.5,25647.8ZM21429.8,25609.8C21428,25609.4 21426.5,25608.2 21425.3,25606L21422.6,25601.1C21421.4,25598.9 21422.2,25596.2 21424.3,25595.1L21432.2,25590.7C21434.2,25589.6 21437,25590.3 21438.1,25592.4L21440.2,25596.1C21441.7,25598.8 21442.7,25604.9 21435.8,25608.7C21433.8,25609.8 21431.7,25610.2 21429.8,25609.8ZM21175.3,25476.3L21172.8,25451.5C21172.4,25448.2 21170.3,25447.3 21167.8,25447.5L21143.7,25450C21141.3,25450.3 21139.5,25452.4 21139.8,25454.8L21140.5,25461.8C21140.7,25464.2 21142.9,25465.9 21145.3,25465.7L21147.6,25465.5C21150,25465.2 21152.1,25467 21152.4,25469.4L21152.7,25472.1C21153.1,25476.2 21151.5,25477.1 21149.1,25477.3C21138.1,25478.5 21128.3,25470 21127.1,25458.6C21126.3,25450.9 21129.1,25437.4 21144.8,25435.8C21148.3,25435.4 21151.7,25435.8 21154.9,25436.9C21157.2,25437.7 21159.9,25437 21161.1,25435L21164.6,25428.9C21165.8,25426.8 21165.1,25424 21162.9,25423.1C21156.7,25420.4 21150,25419.4 21143.2,25420.1C21117.4,25422.8 21102.8,25438.4 21105.1,25460.9C21106.3,25472.6 21111.9,25481.7 21121.2,25487.4C21129.1,25492.3 21139.3,25494.2 21150.7,25493L21151.9,25492.9C21159.7,25491.9 21166.9,25488.6 21172.7,25483.4C21175,25481.1 21175.7,25479.6 21175.3,25476.3Z" style="fill:rgb(239,88,35);"/>
            </g>
            <g transform="matrix(5.69665,0,0,12.3099,-12735.2,-1.13535e+06)">
                <g transform="matrix(0.124932,0,0,0.304676,17465.1,87466.6)">
                    <path d="M15490.9,19599C15437.8,19599 15384.2,19191.9 15331.6,18977.7C15294.6,18827 15258.2,18676.1 15222.1,18525.1C15209.7,18472.9 15197.9,18420.5 15186,18368.1C15179.6,18339.7 15171,18309.6 15172.5,18280.1C15174.8,18233.4 15188.5,18186.3 15210.9,18145.3C15232.1,18106.5 15260.9,18071.9 15296,18045C15324.6,18022.9 15357.2,18006 15391.5,17994.7C15439.5,17978.9 15491.4,17974 15541.4,17981.7C15654.9,17999.1 15752.5,18082.3 15791.2,18189.9C15804,18225.4 15812,18264.7 15808.7,18302.4C15807,18323.4 15800.1,18349.1 15795.8,18368.1C15783.8,18420.5 15772.2,18472.9 15759.7,18525.1C15723.6,18676.1 15687.2,18827 15650.2,18977.7C15597.6,19191.9 15544,19599 15490.9,19599Z" style="fill:rgb(239,88,35);"/>
                </g>
                <g transform="matrix(0.120675,0.0323347,-0.0788559,0.294294,19076.5,87169.2)">
                    <path d="M15490.9,19599C15437.8,19599 15384.2,19191.9 15331.6,18977.7C15294.6,18827 15258.2,18676.1 15222.1,18525.1C15209.7,18472.9 15197.9,18420.5 15186,18368.1C15179.6,18339.7 15171,18309.6 15172.5,18280.1C15174.8,18233.4 15188.5,18186.3 15210.9,18145.3C15232.1,18106.5 15260.9,18071.9 15296,18045C15324.6,18022.9 15357.2,18006 15391.5,17994.7C15439.5,17978.9 15491.4,17974 15541.4,17981.7C15654.9,17999.1 15752.5,18082.3 15791.2,18189.9C15804,18225.4 15812,18264.7 15808.7,18302.4C15807,18323.4 15800.1,18349.1 15795.8,18368.1C15783.8,18420.5 15772.2,18472.9 15759.7,18525.1C15723.6,18676.1 15687.2,18827 15650.2,18977.7C15597.6,19191.9 15544,19599 15490.9,19599Z" style="fill:rgb(239,88,35);"/>
                </g>
                <g transform="matrix(0.108194,0.0624659,-0.152338,0.263857,20710,87299)">
                    <path d="M15490.9,19599C15437.8,19599 15384.2,19191.9 15331.6,18977.7C15294.6,18827 15258.2,18676.1 15222.1,18525.1C15209.7,18472.9 15197.9,18420.5 15186,18368.1C15179.6,18339.7 15171,18309.6 15172.5,18280.1C15174.8,18233.4 15188.5,18186.3 15210.9,18145.3C15232.1,18106.5 15260.9,18071.9 15296,18045C15324.6,18022.9 15357.2,18006 15391.5,17994.7C15439.5,17978.9 15491.4,17974 15541.4,17981.7C15654.9,17999.1 15752.5,18082.3 15791.2,18189.9C15804,18225.4 15812,18264.7 15808.7,18302.4C15807,18323.4 15800.1,18349.1 15795.8,18368.1C15783.8,18420.5 15772.2,18472.9 15759.7,18525.1C15723.6,18676.1 15687.2,18827 15650.2,18977.7C15597.6,19191.9 15544,19599 15490.9,19599Z" style="fill:rgb(239,88,35);"/>
                </g>
                <g transform="matrix(0.0883402,0.0883402,-0.215438,0.215438,22254.3,87847.1)">
                    <path d="M15490.9,19599C15437.8,19599 15384.2,19191.9 15331.6,18977.7C15294.6,18827 15258.2,18676.1 15222.1,18525.1C15209.7,18472.9 15197.9,18420.5 15186,18368.1C15179.6,18339.7 15171,18309.6 15172.5,18280.1C15174.8,18233.4 15188.5,18186.3 15210.9,18145.3C15232.1,18106.5 15260.9,18071.9 15296,18045C15324.6,18022.9 15357.2,18006 15391.5,17994.7C15439.5,17978.9 15491.4,17974 15541.4,17981.7C15654.9,17999.1 15752.5,18082.3 15791.2,18189.9C15804,18225.4 15812,18264.7 15808.7,18302.4C15807,18323.4 15800.1,18349.1 15795.8,18368.1C15783.8,18420.5 15772.2,18472.9 15759.7,18525.1C15723.6,18676.1 15687.2,18827 15650.2,18977.7C15597.6,19191.9 15544,19599 15490.9,19599Z" style="fill:rgb(239,88,35);"/>
                </g>
                <g transform="matrix(0.0624659,0.108194,-0.263857,0.152338,23604.1,88776.3)">
                    <path d="M15490.9,19599C15437.8,19599 15384.2,19191.9 15331.6,18977.7C15294.6,18827 15258.2,18676.1 15222.1,18525.1C15209.7,18472.9 15197.9,18420.5 15186,18368.1C15179.6,18339.7 15171,18309.6 15172.5,18280.1C15174.8,18233.4 15188.5,18186.3 15210.9,18145.3C15232.1,18106.5 15260.9,18071.9 15296,18045C15324.6,18022.9 15357.2,18006 15391.5,17994.7C15439.5,17978.9 15491.4,17974 15541.4,17981.7C15654.9,17999.1 15752.5,18082.3 15791.2,18189.9C15804,18225.4 15812,18264.7 15808.7,18302.4C15807,18323.4 15800.1,18349.1 15795.8,18368.1C15783.8,18420.5 15772.2,18472.9 15759.7,18525.1C15723.6,18676.1 15687.2,18827 15650.2,18977.7C15597.6,19191.9 15544,19599 15490.9,19599Z" style="fill:rgb(239,88,35);"/>
                </g>
                <g transform="matrix(0.0323347,0.120675,-0.294294,0.0788559,24667.4,90023.1)">
                    <path d="M15490.9,19599C15437.8,19599 15384.2,19191.9 15331.6,18977.7C15294.6,18827 15258.2,18676.1 15222.1,18525.1C15209.7,18472.9 15197.9,18420.5 15186,18368.1C15179.6,18339.7 15171,18309.6 15172.5,18280.1C15174.8,18233.4 15188.5,18186.3 15210.9,18145.3C15232.1,18106.5 15260.9,18071.9 15296,18045C15324.6,18022.9 15357.2,18006 15391.5,17994.7C15439.5,17978.9 15491.4,17974 15541.4,17981.7C15654.9,17999.1 15752.5,18082.3 15791.2,18189.9C15804,18225.4 15812,18264.7 15808.7,18302.4C15807,18323.4 15800.1,18349.1 15795.8,18368.1C15783.8,18420.5 15772.2,18472.9 15759.7,18525.1C15723.6,18676.1 15687.2,18827 15650.2,18977.7C15597.6,19191.9 15544,19599 15490.9,19599Z" style="fill:rgb(239,88,35);"/>
                </g>
                <g transform="matrix(4.97073e-18,0.124932,-0.304676,1.06673e-16,25371.7,91502.6)">
                    <path d="M15490.9,19599C15437.8,19599 15384.2,19191.9 15331.6,18977.7C15294.6,18827 15258.2,18676.1 15222.1,18525.1C15209.7,18472.9 15197.9,18420.5 15186,18368.1C15179.6,18339.7 15171,18309.6 15172.5,18280.1C15174.8,18233.4 15188.5,18186.3 15210.9,18145.3C15232.1,18106.5 15260.9,18071.9 15296,18045C15324.6,18022.9 15357.2,18006 15391.5,17994.7C15439.5,17978.9 15491.4,17974 15541.4,17981.7C15654.9,17999.1 15752.5,18082.3 15791.2,18189.9C15804,18225.4 15812,18264.7 15808.7,18302.4C15807,18323.4 15800.1,18349.1 15795.8,18368.1C15783.8,18420.5 15772.2,18472.9 15759.7,18525.1C15723.6,18676.1 15687.2,18827 15650.2,18977.7C15597.6,19191.9 15544,19599 15490.9,19599Z" style="fill:rgb(239,88,35);"/>
                </g>
                <g transform="matrix(0.120675,-0.0323347,0.0788559,0.294294,15985.5,88171)">
                    <path d="M15490.9,19599C15437.8,19599 15384.2,19191.9 15331.6,18977.7C15294.6,18827 15258.2,18676.1 15222.1,18525.1C15209.7,18472.9 15197.9,18420.5 15186,18368.1C15179.6,18339.7 15171,18309.6 15172.5,18280.1C15174.8,18233.4 15188.5,18186.3 15210.9,18145.3C15232.1,18106.5 15260.9,18071.9 15296,18045C15324.6,18022.9 15357.2,18006 15391.5,17994.7C15439.5,17978.9 15491.4,17974 15541.4,17981.7C15654.9,17999.1 15752.5,18082.3 15791.2,18189.9C15804,18225.4 15812,18264.7 15808.7,18302.4C15807,18323.4 15800.1,18349.1 15795.8,18368.1C15783.8,18420.5 15772.2,18472.9 15759.7,18525.1C15723.6,18676.1 15687.2,18827 15650.2,18977.7C15597.6,19191.9 15544,19599 15490.9,19599Z" style="fill:rgb(239,88,35);"/>
                </g>
                <g transform="matrix(0.108194,-0.0624659,0.152338,0.263857,14738.7,89234.3)">
                    <path d="M15490.9,19599C15437.8,19599 15384.2,19191.9 15331.6,18977.7C15294.6,18827 15258.2,18676.1 15222.1,18525.1C15209.7,18472.9 15197.9,18420.5 15186,18368.1C15179.6,18339.7 15171,18309.6 15172.5,18280.1C15174.8,18233.4 15188.5,18186.3 15210.9,18145.3C15232.1,18106.5 15260.9,18071.9 15296,18045C15324.6,18022.9 15357.2,18006 15391.5,17994.7C15439.5,17978.9 15491.4,17974 15541.4,17981.7C15654.9,17999.1 15752.5,18082.3 15791.2,18189.9C15804,18225.4 15812,18264.7 15808.7,18302.4C15807,18323.4 15800.1,18349.1 15795.8,18368.1C15783.8,18420.5 15772.2,18472.9 15759.7,18525.1C15723.6,18676.1 15687.2,18827 15650.2,18977.7C15597.6,19191.9 15544,19599 15490.9,19599Z" style="fill:rgb(239,88,35);"/>
                </g>
                <g transform="matrix(0.0883402,-0.0883402,0.215438,0.215438,13809.5,90584)">
                    <path d="M15490.9,19599C15437.8,19599 15384.2,19191.9 15331.6,18977.7C15294.6,18827 15258.2,18676.1 15222.1,18525.1C15209.7,18472.9 15197.9,18420.5 15186,18368.1C15179.6,18339.7 15171,18309.6 15172.5,18280.1C15174.8,18233.4 15188.5,18186.3 15210.9,18145.3C15232.1,18106.5 15260.9,18071.9 15296,18045C15324.6,18022.9 15357.2,18006 15391.5,17994.7C15439.5,17978.9 15491.4,17974 15541.4,17981.7C15654.9,17999.1 15752.5,18082.3 15791.2,18189.9C15804,18225.4 15812,18264.7 15808.7,18302.4C15807,18323.4 15800.1,18349.1 15795.8,18368.1C15783.8,18420.5 15772.2,18472.9 15759.7,18525.1C15723.6,18676.1 15687.2,18827 15650.2,18977.7C15597.6,19191.9 15544,19599 15490.9,19599Z" style="fill:rgb(239,88,35);"/>
                </g>
                <g transform="matrix(0.0624659,-0.108194,0.263857,0.152338,13261.4,92128.3)">
                    <path d="M15490.9,19599C15437.8,19599 15384.2,19191.9 15331.6,18977.7C15294.6,18827 15258.2,18676.1 15222.1,18525.1C15209.7,18472.9 15197.9,18420.5 15186,18368.1C15179.6,18339.7 15171,18309.6 15172.5,18280.1C15174.8,18233.4 15188.5,18186.3 15210.9,18145.3C15232.1,18106.5 15260.9,18071.9 15296,18045C15324.6,18022.9 15357.2,18006 15391.5,17994.7C15439.5,17978.9 15491.4,17974 15541.4,17981.7C15654.9,17999.1 15752.5,18082.3 15791.2,18189.9C15804,18225.4 15812,18264.7 15808.7,18302.4C15807,18323.4 15800.1,18349.1 15795.8,18368.1C15783.8,18420.5 15772.2,18472.9 15759.7,18525.1C15723.6,18676.1 15687.2,18827 15650.2,18977.7C15597.6,19191.9 15544,19599 15490.9,19599Z" style="fill:rgb(239,88,35);"/>
                </g>
                <g transform="matrix(0.0323347,-0.120675,0.294294,0.0788559,13131.6,93761.8)">
                    <path d="M15490.9,19599C15437.8,19599 15384.2,19191.9 15331.6,18977.7C15294.6,18827 15258.2,18676.1 15222.1,18525.1C15209.7,18472.9 15197.9,18420.5 15186,18368.1C15179.6,18339.7 15171,18309.6 15172.5,18280.1C15174.8,18233.4 15188.5,18186.3 15210.9,18145.3C15232.1,18106.5 15260.9,18071.9 15296,18045C15324.6,18022.9 15357.2,18006 15391.5,17994.7C15439.5,17978.9 15491.4,17974 15541.4,17981.7C15654.9,17999.1 15752.5,18082.3 15791.2,18189.9C15804,18225.4 15812,18264.7 15808.7,18302.4C15807,18323.4 15800.1,18349.1 15795.8,18368.1C15783.8,18420.5 15772.2,18472.9 15759.7,18525.1C15723.6,18676.1 15687.2,18827 15650.2,18977.7C15597.6,19191.9 15544,19599 15490.9,19599Z" style="fill:rgb(239,88,35);"/>
                </g>
                <g transform="matrix(4.97073e-18,-0.124932,0.304676,1.06673e-16,13429,95373.3)">
                    <path d="M15490.9,19599C15437.8,19599 15384.2,19191.9 15331.6,18977.7C15294.6,18827 15258.2,18676.1 15222.1,18525.1C15209.7,18472.9 15197.9,18420.5 15186,18368.1C15179.6,18339.7 15171,18309.6 15172.5,18280.1C15174.8,18233.4 15188.5,18186.3 15210.9,18145.3C15232.1,18106.5 15260.9,18071.9 15296,18045C15324.6,18022.9 15357.2,18006 15391.5,17994.7C15439.5,17978.9 15491.4,17974 15541.4,17981.7C15654.9,17999.1 15752.5,18082.3 15791.2,18189.9C15804,18225.4 15812,18264.7 15808.7,18302.4C15807,18323.4 15800.1,18349.1 15795.8,18368.1C15783.8,18420.5 15772.2,18472.9 15759.7,18525.1C15723.6,18676.1 15687.2,18827 15650.2,18977.7C15597.6,19191.9 15544,19599 15490.9,19599Z" style="fill:rgb(239,88,35);"/>
                </g>
                <g transform="matrix(-0.0323347,-0.120675,0.294294,-0.0788559,14133.4,96852.8)">
                    <path d="M15490.9,19599C15437.8,19599 15384.2,19191.9 15331.6,18977.7C15294.6,18827 15258.2,18676.1 15222.1,18525.1C15209.7,18472.9 15197.9,18420.5 15186,18368.1C15179.6,18339.7 15171,18309.6 15172.5,18280.1C15174.8,18233.4 15188.5,18186.3 15210.9,18145.3C15232.1,18106.5 15260.9,18071.9 15296,18045C15324.6,18022.9 15357.2,18006 15391.5,17994.7C15439.5,17978.9 15491.4,17974 15541.4,17981.7C15654.9,17999.1 15752.5,18082.3 15791.2,18189.9C15804,18225.4 15812,18264.7 15808.7,18302.4C15807,18323.4 15800.1,18349.1 15795.8,18368.1C15783.8,18420.5 15772.2,18472.9 15759.7,18525.1C15723.6,18676.1 15687.2,18827 15650.2,18977.7C15597.6,19191.9 15544,19599 15490.9,19599Z" style="fill:rgb(239,88,35);"/>
                </g>
                <g transform="matrix(-0.0624659,-0.108194,0.263857,-0.152338,15196.7,98099.6)">
                    <path d="M15490.9,19599C15437.8,19599 15384.2,19191.9 15331.6,18977.7C15294.6,18827 15258.2,18676.1 15222.1,18525.1C15209.7,18472.9 15197.9,18420.5 15186,18368.1C15179.6,18339.7 15171,18309.6 15172.5,18280.1C15174.8,18233.4 15188.5,18186.3 15210.9,18145.3C15232.1,18106.5 15260.9,18071.9 15296,18045C15324.6,18022.9 15357.2,18006 15391.5,17994.7C15439.5,17978.9 15491.4,17974 15541.4,17981.7C15654.9,17999.1 15752.5,18082.3 15791.2,18189.9C15804,18225.4 15812,18264.7 15808.7,18302.4C15807,18323.4 15800.1,18349.1 15795.8,18368.1C15783.8,18420.5 15772.2,18472.9 15759.7,18525.1C15723.6,18676.1 15687.2,18827 15650.2,18977.7C15597.6,19191.9 15544,19599 15490.9,19599Z" style="fill:rgb(239,88,35);"/>
                </g>
                <g transform="matrix(-0.0883402,-0.0883402,0.215438,-0.215438,16546.5,99028.8)">
                    <path d="M15490.9,19599C15437.8,19599 15384.2,19191.9 15331.6,18977.7C15294.6,18827 15258.2,18676.1 15222.1,18525.1C15209.7,18472.9 15197.9,18420.5 15186,18368.1C15179.6,18339.7 15171,18309.6 15172.5,18280.1C15174.8,18233.4 15188.5,18186.3 15210.9,18145.3C15232.1,18106.5 15260.9,18071.9 15296,18045C15324.6,18022.9 15357.2,18006 15391.5,17994.7C15439.5,17978.9 15491.4,17974 15541.4,17981.7C15654.9,17999.1 15752.5,18082.3 15791.2,18189.9C15804,18225.4 15812,18264.7 15808.7,18302.4C15807,18323.4 15800.1,18349.1 15795.8,18368.1C15783.8,18420.5 15772.2,18472.9 15759.7,18525.1C15723.6,18676.1 15687.2,18827 15650.2,18977.7C15597.6,19191.9 15544,19599 15490.9,19599Z" style="fill:rgb(239,88,35);"/>
                </g>
                <g transform="matrix(-0.108194,-0.0624659,0.152338,-0.263857,18090.7,99576.9)">
                    <path d="M15490.9,19599C15437.8,19599 15384.2,19191.9 15331.6,18977.7C15294.6,18827 15258.2,18676.1 15222.1,18525.1C15209.7,18472.9 15197.9,18420.5 15186,18368.1C15179.6,18339.7 15171,18309.6 15172.5,18280.1C15174.8,18233.4 15188.5,18186.3 15210.9,18145.3C15232.1,18106.5 15260.9,18071.9 15296,18045C15324.6,18022.9 15357.2,18006 15391.5,17994.7C15439.5,17978.9 15491.4,17974 15541.4,17981.7C15654.9,17999.1 15752.5,18082.3 15791.2,18189.9C15804,18225.4 15812,18264.7 15808.7,18302.4C15807,18323.4 15800.1,18349.1 15795.8,18368.1C15783.8,18420.5 15772.2,18472.9 15759.7,18525.1C15723.6,18676.1 15687.2,18827 15650.2,18977.7C15597.6,19191.9 15544,19599 15490.9,19599Z" style="fill:rgb(239,88,35);"/>
                </g>
                <g transform="matrix(-0.120675,-0.0323347,0.0788559,-0.294294,19724.2,99706.7)">
                    <path d="M15490.9,19599C15437.8,19599 15384.2,19191.9 15331.6,18977.7C15294.6,18827 15258.2,18676.1 15222.1,18525.1C15209.7,18472.9 15197.9,18420.5 15186,18368.1C15179.6,18339.7 15171,18309.6 15172.5,18280.1C15174.8,18233.4 15188.5,18186.3 15210.9,18145.3C15232.1,18106.5 15260.9,18071.9 15296,18045C15324.6,18022.9 15357.2,18006 15391.5,17994.7C15439.5,17978.9 15491.4,17974 15541.4,17981.7C15654.9,17999.1 15752.5,18082.3 15791.2,18189.9C15804,18225.4 15812,18264.7 15808.7,18302.4C15807,18323.4 15800.1,18349.1 15795.8,18368.1C15783.8,18420.5 15772.2,18472.9 15759.7,18525.1C15723.6,18676.1 15687.2,18827 15650.2,18977.7C15597.6,19191.9 15544,19599 15490.9,19599Z" style="fill:rgb(239,88,35);"/>
                </g>
                <g transform="matrix(-0.124932,-6.72629e-18,4.85324e-16,-0.304676,21335.7,99409.3)">
                    <path d="M15490.9,19599C15437.8,19599 15384.2,19191.9 15331.6,18977.7C15294.6,18827 15258.2,18676.1 15222.1,18525.1C15209.7,18472.9 15197.9,18420.5 15186,18368.1C15179.6,18339.7 15171,18309.6 15172.5,18280.1C15174.8,18233.4 15188.5,18186.3 15210.9,18145.3C15232.1,18106.5 15260.9,18071.9 15296,18045C15324.6,18022.9 15357.2,18006 15391.5,17994.7C15439.5,17978.9 15491.4,17974 15541.4,17981.7C15654.9,17999.1 15752.5,18082.3 15791.2,18189.9C15804,18225.4 15812,18264.7 15808.7,18302.4C15807,18323.4 15800.1,18349.1 15795.8,18368.1C15783.8,18420.5 15772.2,18472.9 15759.7,18525.1C15723.6,18676.1 15687.2,18827 15650.2,18977.7C15597.6,19191.9 15544,19599 15490.9,19599Z" style="fill:rgb(239,88,35);"/>
                </g>
                <g transform="matrix(-0.120675,0.0323347,-0.0788559,-0.294294,22815.2,98704.9)">
                    <path d="M15490.9,19599C15437.8,19599 15384.2,19191.9 15331.6,18977.7C15294.6,18827 15258.2,18676.1 15222.1,18525.1C15209.7,18472.9 15197.9,18420.5 15186,18368.1C15179.6,18339.7 15171,18309.6 15172.5,18280.1C15174.8,18233.4 15188.5,18186.3 15210.9,18145.3C15232.1,18106.5 15260.9,18071.9 15296,18045C15324.6,18022.9 15357.2,18006 15391.5,17994.7C15439.5,17978.9 15491.4,17974 15541.4,17981.7C15654.9,17999.1 15752.5,18082.3 15791.2,18189.9C15804,18225.4 15812,18264.7 15808.7,18302.4C15807,18323.4 15800.1,18349.1 15795.8,18368.1C15783.8,18420.5 15772.2,18472.9 15759.7,18525.1C15723.6,18676.1 15687.2,18827 15650.2,18977.7C15597.6,19191.9 15544,19599 15490.9,19599Z" style="fill:rgb(239,88,35);"/>
                </g>
                <g transform="matrix(-0.108194,0.0624659,-0.152338,-0.263857,24062.1,97641.6)">
                    <path d="M15490.9,19599C15437.8,19599 15384.2,19191.9 15331.6,18977.7C15294.6,18827 15258.2,18676.1 15222.1,18525.1C15209.7,18472.9 15197.9,18420.5 15186,18368.1C15179.6,18339.7 15171,18309.6 15172.5,18280.1C15174.8,18233.4 15188.5,18186.3 15210.9,18145.3C15232.1,18106.5 15260.9,18071.9 15296,18045C15324.6,18022.9 15357.2,18006 15391.5,17994.7C15439.5,17978.9 15491.4,17974 15541.4,17981.7C15654.9,17999.1 15752.5,18082.3 15791.2,18189.9C15804,18225.4 15812,18264.7 15808.7,18302.4C15807,18323.4 15800.1,18349.1 15795.8,18368.1C15783.8,18420.5 15772.2,18472.9 15759.7,18525.1C15723.6,18676.1 15687.2,18827 15650.2,18977.7C15597.6,19191.9 15544,19599 15490.9,19599Z" style="fill:rgb(239,88,35);"/>
                </g>
                <g transform="matrix(-0.0883402,0.0883402,-0.215438,-0.215438,24991.2,96291.9)">
                    <path d="M15490.9,19599C15437.8,19599 15384.2,19191.9 15331.6,18977.7C15294.6,18827 15258.2,18676.1 15222.1,18525.1C15209.7,18472.9 15197.9,18420.5 15186,18368.1C15179.6,18339.7 15171,18309.6 15172.5,18280.1C15174.8,18233.4 15188.5,18186.3 15210.9,18145.3C15232.1,18106.5 15260.9,18071.9 15296,18045C15324.6,18022.9 15357.2,18006 15391.5,17994.7C15439.5,17978.9 15491.4,17974 15541.4,17981.7C15654.9,17999.1 15752.5,18082.3 15791.2,18189.9C15804,18225.4 15812,18264.7 15808.7,18302.4C15807,18323.4 15800.1,18349.1 15795.8,18368.1C15783.8,18420.5 15772.2,18472.9 15759.7,18525.1C15723.6,18676.1 15687.2,18827 15650.2,18977.7C15597.6,19191.9 15544,19599 15490.9,19599Z" style="fill:rgb(239,88,35);"/>
                </g>
                <g transform="matrix(-0.0624659,0.108194,-0.263857,-0.152338,25539.4,94747.6)">
                    <path d="M15490.9,19599C15437.8,19599 15384.2,19191.9 15331.6,18977.7C15294.6,18827 15258.2,18676.1 15222.1,18525.1C15209.7,18472.9 15197.9,18420.5 15186,18368.1C15179.6,18339.7 15171,18309.6 15172.5,18280.1C15174.8,18233.4 15188.5,18186.3 15210.9,18145.3C15232.1,18106.5 15260.9,18071.9 15296,18045C15324.6,18022.9 15357.2,18006 15391.5,17994.7C15439.5,17978.9 15491.4,17974 15541.4,17981.7C15654.9,17999.1 15752.5,18082.3 15791.2,18189.9C15804,18225.4 15812,18264.7 15808.7,18302.4C15807,18323.4 15800.1,18349.1 15795.8,18368.1C15783.8,18420.5 15772.2,18472.9 15759.7,18525.1C15723.6,18676.1 15687.2,18827 15650.2,18977.7C15597.6,19191.9 15544,19599 15490.9,19599Z" style="fill:rgb(239,88,35);"/>
                </g>
                <g transform="matrix(-0.0323347,0.120675,-0.294294,-0.0788559,25669.1,93114.1)">
                    <path d="M15490.9,19599C15437.8,19599 15384.2,19191.9 15331.6,18977.7C15294.6,18827 15258.2,18676.1 15222.1,18525.1C15209.7,18472.9 15197.9,18420.5 15186,18368.1C15179.6,18339.7 15171,18309.6 15172.5,18280.1C15174.8,18233.4 15188.5,18186.3 15210.9,18145.3C15232.1,18106.5 15260.9,18071.9 15296,18045C15324.6,18022.9 15357.2,18006 15391.5,17994.7C15439.5,17978.9 15491.4,17974 15541.4,17981.7C15654.9,17999.1 15752.5,18082.3 15791.2,18189.9C15804,18225.4 15812,18264.7 15808.7,18302.4C15807,18323.4 15800.1,18349.1 15795.8,18368.1C15783.8,18420.5 15772.2,18472.9 15759.7,18525.1C15723.6,18676.1 15687.2,18827 15650.2,18977.7C15597.6,19191.9 15544,19599 15490.9,19599Z" style="fill:rgb(239,88,35);"/>
                </g>
            </g>
        </g>
    </g>
</svg>
