<?xml version="1.0" encoding="UTF-8" standalone="no"?>
<!DOCTYPE svg PUBLIC "-//W3C//DTD SVG 1.1//EN" "http://www.w3.org/Graphics/SVG/1.1/DTD/svg11.dtd">
<svg width="100%" height="100%" viewBox="0 0 16536 16536" version="1.1" xmlns="http://www.w3.org/2000/svg" xmlns:xlink="http://www.w3.org/1999/xlink" xml:space="preserve" xmlns:serif="http://www.serif.com/" style="fill-rule:evenodd;clip-rule:evenodd;stroke-linejoin:round;stroke-miterlimit:2;">
    <g transform="matrix(1,0,0,1,-135464,-16386.4)">
        <g id="logo_mono_outline" transform="matrix(1.20224,0,0,0.556359,26174.2,16386.4)">
            <rect x="90905.5" y="0" width="13753.9" height="29720.8" style="fill:none;"/>
            <clipPath id="_clip1">
                <rect x="90905.5" y="0" width="13753.9" height="29720.8"/>
            </clipPath>
            <g clip-path="url(#_clip1)">
                <g transform="matrix(1.6883,0,0,3.64827,-146542,-136337)">
                    <g transform="matrix(0.623699,0,0,0.623699,134322,35536.1)">
                        <path d="M13305,10043.9L13103,10043.9C13052.5,10043.9 12991.4,10077.6 12966.2,10119.6L12734.7,10492.2C12709.4,10534.2 12665.2,10534.2 12637.9,10492.2L12391.6,10119.6C12364.3,10077.6 12301.1,10043.9 12250.6,10043.9L12021.2,10043.9C11970.7,10043.9 11930.7,10083.9 11930.7,10134.4L11930.7,11422.4C11930.7,11472.9 11970.7,11512.9 12021.2,11512.9L12166.5,11512.9C12214.9,11512.9 12254.8,11472.9 12254.8,11422.4L12254.8,10879.4C12254.8,10828.9 12275.9,10822.6 12303.2,10864.7L12545.3,11264.5C12570.5,11306.6 12612.6,11306.6 12637.9,11264.5L12892.5,10854.1C12919.9,10812.1 12940.9,10818.4 12940.9,10868.9L12940.9,11422.4C12940.9,11472.9 12980.9,11512.9 13031.4,11512.9L13305,11512.9C13355.5,11512.9 13395.5,11472.9 13395.5,11422.4L13395.5,10134.4C13395.5,10083.9 13355.5,10043.9 13305,10043.9Z" style="fill-rule:nonzero;"/>
                        <path d="M14296.3,10024.9C13869.1,10024.9 13521.8,10361.7 13521.8,10778.4C13521.8,11195.1 13869.1,11533.9 14296.3,11533.9C14721.4,11533.9 15068.7,11195.1 15068.7,10778.4C15068.7,10361.7 14721.4,10024.9 14296.3,10024.9ZM14296.3,11207.7C14096.4,11207.7 13936.4,11016.2 13936.4,10778.4C13936.4,10542.7 14096.4,10349 14296.3,10349C14494.1,10349 14654.1,10542.7 14654.1,10778.4C14654.1,11016.2 14494.1,11207.7 14296.3,11207.7Z" style="fill-rule:nonzero;"/>
                        <path d="M16451.4,11432.9L16249.3,11045.7C16226.2,11001.5 16224.1,10957.3 16243,10942.5L16274.6,10915.2C16375.6,10824.7 16430.3,10700.5 16430.3,10565.8C16430.3,10429 16371.4,10296.4 16266.2,10199.6C16188.3,10128.1 16047.3,10043.9 15826.3,10043.9L15260.2,10043.9C15224.4,10043.9 15195,10083.9 15195,10134.4L15195,11422.4C15195,11472.9 15234.9,11512.9 15285.4,11512.9L15559,11512.9C15609.6,11512.9 15649.5,11472.9 15649.5,11422.4L15649.5,11148.8C15649.5,11098.3 15674.8,11058.3 15704.3,11058.3C15733.7,11058.3 15775.8,11094.1 15799,11138.3L15954.7,11432.9C15977.9,11477.1 16036.8,11512.9 16087.3,11512.9L16403,11512.9C16453.5,11512.9 16474.5,11477.1 16451.4,11432.9ZM15969.4,10690C15944.2,10719.5 15908.4,10734.2 15855.8,10734.2L15740,10734.2C15689.5,10734.2 15649.5,10692.1 15649.5,10643.7L15649.5,10458.5C15649.5,10410.1 15689.5,10368 15737.9,10368L15826.3,10368C15889.5,10368 16009.4,10410.1 16009.4,10572.1C16009.4,10618.4 15994.7,10660.5 15969.4,10690Z" style="fill-rule:nonzero;"/>
                        <path d="M17720.5,10043.9L17575.2,10043.9C17524.7,10043.9 17484.7,10083.9 17484.7,10134.4L17484.7,10610C17484.7,10658.4 17459.5,10666.8 17430,10629L17028,10115.4C16998.6,10075.4 16933.3,10043.9 16882.8,10043.9L16676.6,10043.9C16626.1,10043.9 16586.1,10083.9 16586.1,10134.4L16586.1,11422.4C16586.1,11472.9 16626.1,11512.9 16676.6,11512.9L16821.8,11512.9C16870.2,11512.9 16910.2,11472.9 16910.2,11422.4L16910.2,10753.1C16910.2,10702.6 16935.4,10694.2 16967,10734.2L17512.1,11441.3C17543.7,11481.3 17608.9,11512.9 17657.3,11512.9L17720.5,11512.9C17771,11512.9 17811,11477.1 17811,11430.8L17811,10134.4C17811,10083.9 17771,10043.9 17720.5,10043.9Z" style="fill-rule:nonzero;"/>
                        <path d="M18389.7,10043.9L18065.6,10043.9C18029.8,10043.9 18000.4,10083.9 18000.4,10134.4L18000.4,11422.4C18000.4,11472.9 18029.8,11512.9 18065.6,11512.9L18389.7,11512.9C18425.5,11512.9 18455,11472.9 18455,11422.4L18455,10134.4C18455,10083.9 18425.5,10043.9 18389.7,10043.9Z" style="fill-rule:nonzero;"/>
                        <path d="M19778.7,10043.9L19633.5,10043.9C19583,10043.9 19543,10083.9 19543,10134.4L19543,10610C19543,10658.4 19517.8,10666.8 19488.3,10629L19086.3,10115.4C19056.9,10075.4 18991.6,10043.9 18941.1,10043.9L18734.9,10043.9C18684.4,10043.9 18644.4,10083.9 18644.4,10134.4L18644.4,11422.4C18644.4,11472.9 18684.4,11512.9 18734.9,11512.9L18880.1,11512.9C18928.5,11512.9 18968.5,11472.9 18968.5,11422.4L18968.5,10753.1C18968.5,10702.6 18993.7,10694.2 19025.3,10734.2L19570.4,11441.3C19602,11481.3 19667.2,11512.9 19715.6,11512.9L19778.7,11512.9C19829.2,11512.9 19869.2,11477.1 19869.2,11430.8L19869.2,10134.4C19869.2,10083.9 19829.2,10043.9 19778.7,10043.9Z" style="fill-rule:nonzero;"/>
                        <path d="M21399.3,11241.4L21399.3,10727.9C21399.3,10660.5 21357.2,10637.4 21306.7,10637.4L20807.9,10637.4C20757.4,10637.4 20717.4,10677.4 20717.4,10727.9L20717.4,10871C20717.4,10921.5 20757.4,10961.5 20807.9,10961.5L20854.2,10961.5C20904.7,10961.5 20944.7,11003.6 20944.7,11052L20944.7,11108.8C20944.7,11193 20911,11207.7 20860.5,11207.7C20633.2,11207.7 20450.1,11014.1 20450.1,10778.4C20450.1,10618.4 20536.4,10349 20860.5,10349C20932,10349 21001.5,10363.8 21064.6,10393.2C21108.8,10414.3 21165.7,10405.9 21195.1,10365.9L21279.3,10250.1C21308.8,10208 21300.4,10151.2 21256.2,10128.1C21136.2,10058.6 21001.5,10024.9 20860.5,10024.9C20325.9,10024.9 19995.5,10313.3 19995.5,10778.4C19995.5,11020.4 20090.2,11218.2 20269.1,11355C20420.6,11470.8 20624.8,11531.8 20860.5,11531.8L20885.7,11531.8C21047.8,11527.6 21201.4,11475 21331.9,11380.3C21382.4,11338.2 21399.3,11308.7 21399.3,11241.4Z" style="fill-rule:nonzero;"/>
                    </g>
                    <g transform="matrix(0.694904,0,0,0.694904,133479,36036.7)">
                        <path d="M13145.1,11306.6L13060.9,11190.9C13031.4,11150.9 12974.6,11142.5 12930.4,11163.5C12867.3,11193 12797.8,11207.7 12726.3,11207.7C12606.3,11207.7 12513.7,11167.7 12448.5,11085.6C12387.4,11012 12353.8,10902.6 12353.8,10788.9C12353.8,10576.3 12469.5,10349 12726.3,10349C12797.8,10349 12867.3,10363.8 12930.4,10393.2C12974.6,10414.3 13031.4,10405.9 13060.9,10365.9L13145.1,10250.1C13174.5,10208 13166.1,10151.2 13121.9,10128.1C13002,10058.6 12867.3,10024.9 12726.3,10024.9L12686.3,10024.9C12406.4,10035.5 12231.7,10159.6 12134.9,10262.8C12002.3,10403.8 11930.7,10589 11930.7,10786.8C11930.7,10982.5 12002.3,11165.6 12132.8,11300.3C12229.6,11401.3 12402.2,11521.3 12684.2,11531.8L12726.3,11531.8C12867.3,11531.8 13002,11498.1 13121.9,11428.7C13166.1,11405.5 13174.5,11348.7 13145.1,11306.6Z" style="fill-rule:nonzero;"/>
                        <path d="M14504.6,10043.9L14178.4,10043.9C14142.7,10043.9 14113.2,10083.9 14113.2,10134.4L14113.2,10544.8C14113.2,10595.3 14073.2,10635.3 14022.7,10635.3L13833.3,10635.3C13782.8,10635.3 13742.8,10595.3 13742.8,10544.8L13742.8,10134.4C13742.8,10083.9 13713.3,10043.9 13677.5,10043.9L13353.4,10043.9C13317.7,10043.9 13288.2,10083.9 13288.2,10134.4L13288.2,11422.4C13288.2,11472.9 13317.7,11512.9 13353.4,11512.9L13677.5,11512.9C13713.3,11512.9 13742.8,11472.9 13742.8,11422.4L13742.8,11052C13742.8,11001.5 13784.9,10961.5 13833.3,10961.5L14022.7,10961.5C14073.2,10961.5 14113.2,11001.5 14113.2,11052L14113.2,11422.4C14113.2,11472.9 14142.7,11512.9 14178.4,11512.9L14504.6,11512.9C14540.4,11512.9 14567.8,11472.9 14567.8,11422.4L14567.8,10134.4C14567.8,10083.9 14540.4,10043.9 14504.6,10043.9Z" style="fill-rule:nonzero;"/>
                        <path d="M15468.5,10024.9C15041.3,10024.9 14694.1,10361.7 14694.1,10778.4C14694.1,11195.1 15041.3,11533.9 15468.5,11533.9C15893.7,11533.9 16240.9,11195.1 16240.9,10778.4C16240.9,10361.7 15893.7,10024.9 15468.5,10024.9ZM15468.5,11207.7C15268.6,11207.7 15108.7,11016.2 15108.7,10778.4C15108.7,10542.7 15268.6,10349 15468.5,10349C15666.4,10349 15826.3,10542.7 15826.3,10778.4C15826.3,11016.2 15666.4,11207.7 15468.5,11207.7Z" style="fill-rule:nonzero;"/>
                        <path d="M17623.6,11432.9L17421.6,11045.7C17398.5,11001.5 17396.3,10957.3 17415.3,10942.5L17446.9,10915.2C17547.9,10824.7 17602.6,10700.5 17602.6,10565.8C17602.6,10429 17543.7,10296.4 17438.4,10199.6C17360.6,10128.1 17219.6,10043.9 16998.6,10043.9L16432.4,10043.9C16396.7,10043.9 16367.2,10083.9 16367.2,10134.4L16367.2,11422.4C16367.2,11472.9 16407.2,11512.9 16457.7,11512.9L16731.3,11512.9C16781.8,11512.9 16821.8,11472.9 16821.8,11422.4L16821.8,11148.8C16821.8,11098.3 16847,11058.3 16876.5,11058.3C16906,11058.3 16948.1,11094.1 16971.2,11138.3L17127,11432.9C17150.1,11477.1 17209,11512.9 17259.5,11512.9L17575.2,11512.9C17625.7,11512.9 17646.8,11477.1 17623.6,11432.9ZM17141.7,10690C17116.4,10719.5 17080.7,10734.2 17028,10734.2L16912.3,10734.2C16861.8,10734.2 16821.8,10692.1 16821.8,10643.7L16821.8,10458.5C16821.8,10410.1 16861.8,10368 16910.2,10368L16998.6,10368C17061.7,10368 17181.7,10410.1 17181.7,10572.1C17181.7,10618.4 17166.9,10660.5 17141.7,10690Z" style="fill-rule:nonzero;"/>
                        <path d="M18939,10043.9L18793.8,10043.9C18743.3,10043.9 18703.3,10083.9 18703.3,10134.4L18703.3,10797.3C18703.3,11028.8 18678,11134.1 18608.6,11178.3C18568.6,11199.3 18511.8,11205.6 18431.8,11207.7C18303.4,11205.6 18212.9,11182.5 18212.9,10797.3L18212.9,10134.4C18212.9,10083.9 18172.9,10043.9 18122.4,10043.9L17848.8,10043.9C17798.3,10043.9 17758.3,10083.9 17758.3,10134.4L17758.3,10797.3C17758.3,11258.2 17884.6,11531.8 18440.2,11531.8C18589.6,11531.8 18688.6,11506.6 18766.4,11462.4C19027.4,11325.6 19027.4,11018.3 19027.4,10797.3L19027.4,10134.4C19027.4,10083.9 18987.4,10043.9 18939,10043.9Z" style="fill-rule:nonzero;"/>
                        <path d="M19679.8,10450.1C19679.8,10399.6 19743,10357.5 19831.4,10357.5C20010.2,10357.5 20128.1,10403.8 20195.4,10441.6C20239.6,10466.9 20283.8,10456.4 20300.7,10410.1L20355.4,10271.2C20372.2,10224.9 20353.3,10165.9 20309.1,10144.9C20212.3,10098.6 20041.8,10031.3 19846.1,10031.3C19444.1,10031.3 19210.5,10153.3 19210.5,10473.2C19210.5,10898.3 19959.7,10999.4 19959.7,11117.2C19959.7,11171.9 19894.5,11203.5 19795.6,11203.5C19578.8,11203.5 19435.7,11132 19322,11037.2C19284.2,11005.7 19240,11014.1 19223.1,11060.4L19160,11220.3C19143.2,11266.6 19160,11329.8 19202.1,11357.1C19305.2,11424.5 19511.5,11529.7 19768.2,11529.7C20174.4,11529.7 20429.1,11334 20429.1,11068.8C20429.1,10650 19679.8,10582.7 19679.8,10450.1Z" style="fill-rule:nonzero;"/>
                    </g>
                    <g transform="matrix(3.28276,0,0,3.28276,97351.1,-230969)">
                        <g transform="matrix(0.227545,0,0,0.554922,10905.5,72035.5)">
                            <path d="M15490.9,19599C15437.8,19599 15384.2,19191.9 15331.6,18977.7C15294.6,18827 15258.2,18676.1 15222.1,18525.1C15209.7,18472.9 15197.9,18420.5 15186,18368.1C15179.6,18339.7 15171,18309.6 15172.5,18280.1C15174.8,18233.4 15188.5,18186.3 15210.9,18145.3C15232.1,18106.5 15260.9,18071.9 15296,18045C15324.6,18022.9 15357.2,18006 15391.5,17994.7C15439.5,17978.9 15491.4,17974 15541.4,17981.7C15654.9,17999.1 15752.5,18082.3 15791.2,18189.9C15804,18225.4 15812,18264.7 15808.7,18302.4C15807,18323.4 15800.1,18349.1 15795.8,18368.1C15783.8,18420.5 15772.2,18472.9 15759.7,18525.1C15723.6,18676.1 15687.2,18827 15650.2,18977.7C15597.6,19191.9 15544,19599 15490.9,19599Z"/>
                        </g>
                        <g transform="matrix(0.219792,0.058893,-0.143624,0.536014,13840.5,71493.7)">
                            <path d="M15490.9,19599C15437.8,19599 15384.2,19191.9 15331.6,18977.7C15294.6,18827 15258.2,18676.1 15222.1,18525.1C15209.7,18472.9 15197.9,18420.5 15186,18368.1C15179.6,18339.7 15171,18309.6 15172.5,18280.1C15174.8,18233.4 15188.5,18186.3 15210.9,18145.3C15232.1,18106.5 15260.9,18071.9 15296,18045C15324.6,18022.9 15357.2,18006 15391.5,17994.7C15439.5,17978.9 15491.4,17974 15541.4,17981.7C15654.9,17999.1 15752.5,18082.3 15791.2,18189.9C15804,18225.4 15812,18264.7 15808.7,18302.4C15807,18323.4 15800.1,18349.1 15795.8,18368.1C15783.8,18420.5 15772.2,18472.9 15759.7,18525.1C15723.6,18676.1 15687.2,18827 15650.2,18977.7C15597.6,19191.9 15544,19599 15490.9,19599Z"/>
                        </g>
                        <g transform="matrix(0.19706,0.113772,-0.277461,0.480577,16815.7,71730.1)">
                            <path d="M15490.9,19599C15437.8,19599 15384.2,19191.9 15331.6,18977.7C15294.6,18827 15258.2,18676.1 15222.1,18525.1C15209.7,18472.9 15197.9,18420.5 15186,18368.1C15179.6,18339.7 15171,18309.6 15172.5,18280.1C15174.8,18233.4 15188.5,18186.3 15210.9,18145.3C15232.1,18106.5 15260.9,18071.9 15296,18045C15324.6,18022.9 15357.2,18006 15391.5,17994.7C15439.5,17978.9 15491.4,17974 15541.4,17981.7C15654.9,17999.1 15752.5,18082.3 15791.2,18189.9C15804,18225.4 15812,18264.7 15808.7,18302.4C15807,18323.4 15800.1,18349.1 15795.8,18368.1C15783.8,18420.5 15772.2,18472.9 15759.7,18525.1C15723.6,18676.1 15687.2,18827 15650.2,18977.7C15597.6,19191.9 15544,19599 15490.9,19599Z"/>
                        </g>
                        <g transform="matrix(0.160899,0.160899,-0.392389,0.392389,19628.3,72728.5)">
                            <path d="M15490.9,19599C15437.8,19599 15384.2,19191.9 15331.6,18977.7C15294.6,18827 15258.2,18676.1 15222.1,18525.1C15209.7,18472.9 15197.9,18420.5 15186,18368.1C15179.6,18339.7 15171,18309.6 15172.5,18280.1C15174.8,18233.4 15188.5,18186.3 15210.9,18145.3C15232.1,18106.5 15260.9,18071.9 15296,18045C15324.6,18022.9 15357.2,18006 15391.5,17994.7C15439.5,17978.9 15491.4,17974 15541.4,17981.7C15654.9,17999.1 15752.5,18082.3 15791.2,18189.9C15804,18225.4 15812,18264.7 15808.7,18302.4C15807,18323.4 15800.1,18349.1 15795.8,18368.1C15783.8,18420.5 15772.2,18472.9 15759.7,18525.1C15723.6,18676.1 15687.2,18827 15650.2,18977.7C15597.6,19191.9 15544,19599 15490.9,19599Z"/>
                        </g>
                        <g transform="matrix(0.113772,0.19706,-0.480577,0.277461,22086.8,74420.8)">
                            <path d="M15490.9,19599C15437.8,19599 15384.2,19191.9 15331.6,18977.7C15294.6,18827 15258.2,18676.1 15222.1,18525.1C15209.7,18472.9 15197.9,18420.5 15186,18368.1C15179.6,18339.7 15171,18309.6 15172.5,18280.1C15174.8,18233.4 15188.5,18186.3 15210.9,18145.3C15232.1,18106.5 15260.9,18071.9 15296,18045C15324.6,18022.9 15357.2,18006 15391.5,17994.7C15439.5,17978.9 15491.4,17974 15541.4,17981.7C15654.9,17999.1 15752.5,18082.3 15791.2,18189.9C15804,18225.4 15812,18264.7 15808.7,18302.4C15807,18323.4 15800.1,18349.1 15795.8,18368.1C15783.8,18420.5 15772.2,18472.9 15759.7,18525.1C15723.6,18676.1 15687.2,18827 15650.2,18977.7C15597.6,19191.9 15544,19599 15490.9,19599Z"/>
                        </g>
                        <g transform="matrix(0.058893,0.219792,-0.536014,0.143624,24023.4,76691.7)">
                            <path d="M15490.9,19599C15437.8,19599 15384.2,19191.9 15331.6,18977.7C15294.6,18827 15258.2,18676.1 15222.1,18525.1C15209.7,18472.9 15197.9,18420.5 15186,18368.1C15179.6,18339.7 15171,18309.6 15172.5,18280.1C15174.8,18233.4 15188.5,18186.3 15210.9,18145.3C15232.1,18106.5 15260.9,18071.9 15296,18045C15324.6,18022.9 15357.2,18006 15391.5,17994.7C15439.5,17978.9 15491.4,17974 15541.4,17981.7C15654.9,17999.1 15752.5,18082.3 15791.2,18189.9C15804,18225.4 15812,18264.7 15808.7,18302.4C15807,18323.4 15800.1,18349.1 15795.8,18368.1C15783.8,18420.5 15772.2,18472.9 15759.7,18525.1C15723.6,18676.1 15687.2,18827 15650.2,18977.7C15597.6,19191.9 15544,19599 15490.9,19599Z"/>
                        </g>
                        <g transform="matrix(9.05346e-18,0.227545,-0.554922,1.94289e-16,25306.3,79386.5)">
                            <path d="M15490.9,19599C15437.8,19599 15384.2,19191.9 15331.6,18977.7C15294.6,18827 15258.2,18676.1 15222.1,18525.1C15209.7,18472.9 15197.9,18420.5 15186,18368.1C15179.6,18339.7 15171,18309.6 15172.5,18280.1C15174.8,18233.4 15188.5,18186.3 15210.9,18145.3C15232.1,18106.5 15260.9,18071.9 15296,18045C15324.6,18022.9 15357.2,18006 15391.5,17994.7C15439.5,17978.9 15491.4,17974 15541.4,17981.7C15654.9,17999.1 15752.5,18082.3 15791.2,18189.9C15804,18225.4 15812,18264.7 15808.7,18302.4C15807,18323.4 15800.1,18349.1 15795.8,18368.1C15783.8,18420.5 15772.2,18472.9 15759.7,18525.1C15723.6,18676.1 15687.2,18827 15650.2,18977.7C15597.6,19191.9 15544,19599 15490.9,19599Z"/>
                        </g>
                        <g transform="matrix(0.219792,-0.058893,0.143624,0.536014,8210.7,73318.3)">
                            <path d="M15490.9,19599C15437.8,19599 15384.2,19191.9 15331.6,18977.7C15294.6,18827 15258.2,18676.1 15222.1,18525.1C15209.7,18472.9 15197.9,18420.5 15186,18368.1C15179.6,18339.7 15171,18309.6 15172.5,18280.1C15174.8,18233.4 15188.5,18186.3 15210.9,18145.3C15232.1,18106.5 15260.9,18071.9 15296,18045C15324.6,18022.9 15357.2,18006 15391.5,17994.7C15439.5,17978.9 15491.4,17974 15541.4,17981.7C15654.9,17999.1 15752.5,18082.3 15791.2,18189.9C15804,18225.4 15812,18264.7 15808.7,18302.4C15807,18323.4 15800.1,18349.1 15795.8,18368.1C15783.8,18420.5 15772.2,18472.9 15759.7,18525.1C15723.6,18676.1 15687.2,18827 15650.2,18977.7C15597.6,19191.9 15544,19599 15490.9,19599Z"/>
                        </g>
                        <g transform="matrix(0.19706,-0.113772,0.277461,0.480577,5939.77,75255)">
                            <path d="M15490.9,19599C15437.8,19599 15384.2,19191.9 15331.6,18977.7C15294.6,18827 15258.2,18676.1 15222.1,18525.1C15209.7,18472.9 15197.9,18420.5 15186,18368.1C15179.6,18339.7 15171,18309.6 15172.5,18280.1C15174.8,18233.4 15188.5,18186.3 15210.9,18145.3C15232.1,18106.5 15260.9,18071.9 15296,18045C15324.6,18022.9 15357.2,18006 15391.5,17994.7C15439.5,17978.9 15491.4,17974 15541.4,17981.7C15654.9,17999.1 15752.5,18082.3 15791.2,18189.9C15804,18225.4 15812,18264.7 15808.7,18302.4C15807,18323.4 15800.1,18349.1 15795.8,18368.1C15783.8,18420.5 15772.2,18472.9 15759.7,18525.1C15723.6,18676.1 15687.2,18827 15650.2,18977.7C15597.6,19191.9 15544,19599 15490.9,19599Z"/>
                        </g>
                        <g transform="matrix(0.160899,-0.160899,0.392389,0.392389,4247.46,77713.4)">
                            <path d="M15490.9,19599C15437.8,19599 15384.2,19191.9 15331.6,18977.7C15294.6,18827 15258.2,18676.1 15222.1,18525.1C15209.7,18472.9 15197.9,18420.5 15186,18368.1C15179.6,18339.7 15171,18309.6 15172.5,18280.1C15174.8,18233.4 15188.5,18186.3 15210.9,18145.3C15232.1,18106.5 15260.9,18071.9 15296,18045C15324.6,18022.9 15357.2,18006 15391.5,17994.7C15439.5,17978.9 15491.4,17974 15541.4,17981.7C15654.9,17999.1 15752.5,18082.3 15791.2,18189.9C15804,18225.4 15812,18264.7 15808.7,18302.4C15807,18323.4 15800.1,18349.1 15795.8,18368.1C15783.8,18420.5 15772.2,18472.9 15759.7,18525.1C15723.6,18676.1 15687.2,18827 15650.2,18977.7C15597.6,19191.9 15544,19599 15490.9,19599Z"/>
                        </g>
                        <g transform="matrix(0.113772,-0.19706,0.480577,0.277461,3249.1,80526)">
                            <path d="M15490.9,19599C15437.8,19599 15384.2,19191.9 15331.6,18977.7C15294.6,18827 15258.2,18676.1 15222.1,18525.1C15209.7,18472.9 15197.9,18420.5 15186,18368.1C15179.6,18339.7 15171,18309.6 15172.5,18280.1C15174.8,18233.4 15188.5,18186.3 15210.9,18145.3C15232.1,18106.5 15260.9,18071.9 15296,18045C15324.6,18022.9 15357.2,18006 15391.5,17994.7C15439.5,17978.9 15491.4,17974 15541.4,17981.7C15654.9,17999.1 15752.5,18082.3 15791.2,18189.9C15804,18225.4 15812,18264.7 15808.7,18302.4C15807,18323.4 15800.1,18349.1 15795.8,18368.1C15783.8,18420.5 15772.2,18472.9 15759.7,18525.1C15723.6,18676.1 15687.2,18827 15650.2,18977.7C15597.6,19191.9 15544,19599 15490.9,19599Z"/>
                        </g>
                        <g transform="matrix(0.058893,-0.219792,0.536014,0.143624,3012.72,83501.3)">
                            <path d="M15490.9,19599C15437.8,19599 15384.2,19191.9 15331.6,18977.7C15294.6,18827 15258.2,18676.1 15222.1,18525.1C15209.7,18472.9 15197.9,18420.5 15186,18368.1C15179.6,18339.7 15171,18309.6 15172.5,18280.1C15174.8,18233.4 15188.5,18186.3 15210.9,18145.3C15232.1,18106.5 15260.9,18071.9 15296,18045C15324.6,18022.9 15357.2,18006 15391.5,17994.7C15439.5,17978.9 15491.4,17974 15541.4,17981.7C15654.9,17999.1 15752.5,18082.3 15791.2,18189.9C15804,18225.4 15812,18264.7 15808.7,18302.4C15807,18323.4 15800.1,18349.1 15795.8,18368.1C15783.8,18420.5 15772.2,18472.9 15759.7,18525.1C15723.6,18676.1 15687.2,18827 15650.2,18977.7C15597.6,19191.9 15544,19599 15490.9,19599Z"/>
                        </g>
                        <g transform="matrix(9.05346e-18,-0.227545,0.554922,1.94289e-16,3554.43,86436.3)">
                            <path d="M15490.9,19599C15437.8,19599 15384.2,19191.9 15331.6,18977.7C15294.6,18827 15258.2,18676.1 15222.1,18525.1C15209.7,18472.9 15197.9,18420.5 15186,18368.1C15179.6,18339.7 15171,18309.6 15172.5,18280.1C15174.8,18233.4 15188.5,18186.3 15210.9,18145.3C15232.1,18106.5 15260.9,18071.9 15296,18045C15324.6,18022.9 15357.2,18006 15391.5,17994.7C15439.5,17978.9 15491.4,17974 15541.4,17981.7C15654.9,17999.1 15752.5,18082.3 15791.2,18189.9C15804,18225.4 15812,18264.7 15808.7,18302.4C15807,18323.4 15800.1,18349.1 15795.8,18368.1C15783.8,18420.5 15772.2,18472.9 15759.7,18525.1C15723.6,18676.1 15687.2,18827 15650.2,18977.7C15597.6,19191.9 15544,19599 15490.9,19599Z"/>
                        </g>
                    </g>
                    <g transform="matrix(2.44665,0,0,2.6087,83902.8,-195178)">
                        <path d="M26424.6,90069.8L26424.6,91339.8C26424.6,91851.1 25982,92266.2 25436.8,92266.2L24274.5,92266.2C23729.4,92266.2 23286.8,91851.1 23286.8,91339.8L23286.8,90069.8C23286.8,89558.5 23729.4,89143.3 24274.5,89143.3L25436.8,89143.3C25982,89143.3 26424.6,89558.5 26424.6,90069.8ZM26303.9,90069.8C26303.9,89620.9 25915.4,89256.5 25436.8,89256.5L24274.5,89256.5C23796,89256.5 23407.5,89620.9 23407.5,90069.8L23407.5,91339.8C23407.5,91788.6 23796,92153 24274.5,92153L25436.8,92153C25915.4,92153 26303.9,91788.6 26303.9,91339.8L26303.9,90069.8Z"/>
                    </g>
                </g>
            </g>
        </g>
    </g>
</svg>
