<?xml version="1.0" encoding="UTF-8" standalone="no"?>
<!DOCTYPE svg PUBLIC "-//W3C//DTD SVG 1.1//EN" "http://www.w3.org/Graphics/SVG/1.1/DTD/svg11.dtd">
<svg width="100%" height="100%" viewBox="0 0 16536 16536" version="1.1" xmlns="http://www.w3.org/2000/svg" xmlns:xlink="http://www.w3.org/1999/xlink" xml:space="preserve" xmlns:serif="http://www.serif.com/" style="fill-rule:evenodd;clip-rule:evenodd;stroke-linejoin:round;stroke-miterlimit:2;">
    <g transform="matrix(1,0,0,1,-153026,-16386.4)">
        <g id="logo_mono_fill" transform="matrix(1.20224,0,0,0.556359,43735.7,16386.4)">
            <rect x="90905.5" y="0" width="13753.9" height="29720.8" style="fill:none;"/>
            <g transform="matrix(4.13068,0,0,9.51725,-4888.48,-848399)">
                <path d="M26424.6,90069.8L26424.6,91339.8C26424.6,91851.1 25982,92266.2 25436.8,92266.2L24274.5,92266.2C23729.4,92266.2 23286.8,91851.1 23286.8,91339.8L23286.8,90069.8C23286.8,89558.5 23729.4,89143.3 24274.5,89143.3L25436.8,89143.3C25982,89143.3 26424.6,89558.5 26424.6,90069.8ZM23996.4,91644L23972.5,91613.2C23964.2,91602.5 23948,91600.3 23935.5,91605.9C23917.5,91613.7 23897.8,91617.6 23877.5,91617.6C23843.4,91617.6 23817.1,91607 23798.6,91585.1C23781.2,91565.5 23771.7,91536.3 23771.7,91506.1C23771.7,91449.4 23804.6,91388.9 23877.5,91388.9C23897.8,91388.9 23917.5,91392.8 23935.5,91400.7C23948,91406.3 23964.2,91404 23972.5,91393.4L23996.4,91362.6C24004.8,91351.3 24002.4,91336.2 23989.9,91330C23955.8,91311.5 23917.5,91302.6 23877.5,91302.6L23866.1,91302.6C23786.6,91305.4 23737,91338.4 23709.5,91365.9C23671.9,91403.5 23651.5,91452.8 23651.5,91505.5C23651.5,91557.7 23671.9,91606.4 23708.9,91642.3C23736.4,91669.2 23785.4,91701.2 23865.5,91704L23877.5,91704C23917.5,91704 23955.8,91695 23989.9,91676.5C24002.4,91670.3 24004.8,91655.2 23996.4,91644ZM24382.6,91307.6L24289.9,91307.6C24279.8,91307.6 24271.4,91318.3 24271.4,91331.7L24271.4,91441C24271.4,91454.5 24260,91465.1 24245.7,91465.1L24191.9,91465.1C24177.6,91465.1 24166.2,91454.5 24166.2,91441L24166.2,91331.7C24166.2,91318.3 24157.8,91307.6 24147.7,91307.6L24055.6,91307.6C24045.5,91307.6 24037.1,91318.3 24037.1,91331.7L24037.1,91674.8C24037.1,91688.3 24045.5,91698.9 24055.6,91698.9L24147.7,91698.9C24157.8,91698.9 24166.2,91688.3 24166.2,91674.8L24166.2,91576.2C24166.2,91562.7 24178.2,91552 24191.9,91552L24245.7,91552C24260,91552 24271.4,91562.7 24271.4,91576.2L24271.4,91674.8C24271.4,91688.3 24279.8,91698.9 24289.9,91698.9L24382.6,91698.9C24392.7,91698.9 24400.5,91688.3 24400.5,91674.8L24400.5,91331.7C24400.5,91318.3 24392.7,91307.6 24382.6,91307.6ZM25642,91307.6L25600.8,91307.6C25586.5,91307.6 25575.1,91318.3 25575.1,91331.7L25575.1,91508.3C25575.1,91570 25567.9,91598 25548.2,91609.8C25536.8,91615.4 25520.7,91617.1 25498,91617.6C25461.5,91617.1 25435.8,91610.9 25435.8,91508.3L25435.8,91331.7C25435.8,91318.3 25424.5,91307.6 25410.1,91307.6L25332.4,91307.6C25318.1,91307.6 25306.7,91318.3 25306.7,91331.7L25306.7,91508.3C25306.7,91631.1 25342.6,91704 25500.4,91704C25542.8,91704 25570.9,91697.2 25593,91685.5C25667.2,91649 25667.2,91567.2 25667.2,91508.3L25667.2,91331.7C25667.2,91318.3 25655.8,91307.6 25642,91307.6ZM24251.9,90837C24142.9,90837 24054.4,90917.5 24054.4,91017.2C24054.4,91116.8 24142.9,91197.8 24251.9,91197.8C24360.2,91197.8 24448.7,91116.8 24448.7,91017.2C24448.7,90917.5 24360.2,90837 24251.9,90837ZM24251.9,91119.8C24200.9,91119.8 24160.1,91074 24160.1,91017.2C24160.1,90960.8 24200.9,90914.5 24251.9,90914.5C24302.3,90914.5 24343.1,90960.8 24343.1,91017.2C24343.1,91074 24302.3,91119.8 24251.9,91119.8ZM25295.3,90841.6L25212.7,90841.6C25203.6,90841.6 25196.1,90851.1 25196.1,90863.2L25196.1,91171.1C25196.1,91183.2 25203.6,91192.8 25212.7,91192.8L25295.3,91192.8C25304.5,91192.8 25312,91183.2 25312,91171.1L25312,90863.2C25312,90851.1 25304.5,90841.6 25295.3,90841.6ZM23999.2,90841.6L23947.7,90841.6C23934.8,90841.6 23919.2,90849.6 23912.8,90859.7L23853.8,90948.7C23847.3,90958.8 23836.1,90958.8 23829.1,90948.7L23766.3,90859.7C23759.3,90849.6 23743.2,90841.6 23730.4,90841.6L23671.9,90841.6C23659,90841.6 23648.8,90851.1 23648.8,90863.2L23648.8,91171.1C23648.8,91183.2 23659,91192.8 23671.9,91192.8L23708.9,91192.8C23721.3,91192.8 23731.4,91183.2 23731.4,91171.1L23731.4,91041.3C23731.4,91029.3 23736.8,91027.7 23743.8,91037.8L23805.5,91133.4C23811.9,91143.5 23822.7,91143.5 23829.1,91133.4L23894,91035.3C23901,91025.2 23906.3,91026.7 23906.3,91038.8L23906.3,91171.1C23906.3,91183.2 23916.5,91192.8 23929.4,91192.8L23999.2,91192.8C24012,91192.8 24022.2,91183.2 24022.2,91171.1L24022.2,90863.2C24022.2,90851.1 24012,90841.6 23999.2,90841.6ZM25268.5,91677.6L25211.1,91574.5C25204.5,91562.7 25203.9,91550.9 25209.3,91547L25218.2,91539.7C25246.9,91515.6 25262.5,91482.5 25262.5,91446.6C25262.5,91410.2 25245.7,91374.9 25215.9,91349.1C25193.7,91330 25153.7,91307.6 25090.9,91307.6L24930.1,91307.6C24920,91307.6 24911.6,91318.3 24911.6,91331.7L24911.6,91674.8C24911.6,91688.3 24923,91698.9 24937.3,91698.9L25015,91698.9C25029.4,91698.9 25040.7,91688.3 25040.7,91674.8L25040.7,91601.9C25040.7,91588.5 25047.9,91577.8 25056.3,91577.8C25064.6,91577.8 25076.6,91587.4 25083.1,91599.1L25127.4,91677.6C25134,91689.4 25150.7,91698.9 25165,91698.9L25254.7,91698.9C25269,91698.9 25275,91689.4 25268.5,91677.6ZM25131.6,91479.7C25124.4,91487.6 25114.2,91491.5 25099.3,91491.5L25066.4,91491.5C25052.1,91491.5 25040.7,91480.3 25040.7,91467.4L25040.7,91418.1C25040.7,91405.2 25052.1,91393.9 25065.8,91393.9L25090.9,91393.9C25108.9,91393.9 25142.9,91405.2 25142.9,91448.3C25142.9,91460.7 25138.7,91471.9 25131.6,91479.7ZM26062.5,91127.9L26062.5,91005.1C26062.5,90989 26051.8,90983.5 26038.9,90983.5L25911.8,90983.5C25898.9,90983.5 25888.7,90993 25888.7,91005.1L25888.7,91039.3C25888.7,91051.4 25898.9,91061 25911.8,91061L25923.6,91061C25936.5,91061 25946.7,91071 25946.7,91082.6L25946.7,91096.2C25946.7,91116.3 25938.1,91119.8 25925.2,91119.8C25867.3,91119.8 25820.6,91073.5 25820.6,91017.2C25820.6,90978.9 25842.6,90914.5 25925.2,90914.5C25943.4,90914.5 25961.1,90918.1 25977.2,90925.1C25988.5,90930.1 26003,90928.1 26010.5,90918.6L26032,90890.9C26039.5,90880.8 26037.3,90867.2 26026.1,90861.7C25995.5,90845.1 25961.1,90837 25925.2,90837C25788.9,90837 25704.7,90906 25704.7,91017.2C25704.7,91075 25728.8,91122.3 25774.4,91155C25813.1,91182.7 25865.1,91197.3 25925.2,91197.3L25931.6,91197.3C25972.9,91196.3 26012.1,91183.7 26045.4,91161.1C26058.2,91151 26062.5,91144 26062.5,91127.9ZM25649.4,90841.6L25612.4,90841.6C25599.5,90841.6 25589.3,90851.1 25589.3,90863.2L25589.3,90976.9C25589.3,90988.5 25582.9,90990.5 25575.4,90981.4L25472.9,90858.7C25465.4,90849.1 25448.8,90841.6 25435.9,90841.6L25383.3,90841.6C25370.5,90841.6 25360.3,90851.1 25360.3,90863.2L25360.3,91171.1C25360.3,91183.2 25370.5,91192.8 25383.3,91192.8L25420.4,91192.8C25432.7,91192.8 25442.9,91183.2 25442.9,91171.1L25442.9,91011.1C25442.9,90999.1 25449.3,90997 25457.4,91006.6L25596.3,91175.7C25604.4,91185.2 25621,91192.8 25633.3,91192.8L25649.4,91192.8C25662.3,91192.8 25672.5,91184.2 25672.5,91173.2L25672.5,90863.2C25672.5,90851.1 25662.3,90841.6 25649.4,90841.6ZM25852.5,91415.8C25852.5,91402.4 25870.4,91391.1 25895.5,91391.1C25946.3,91391.1 25979.8,91403.5 25998.9,91413.6C26011.5,91420.3 26024,91417.5 26028.8,91405.2L26044.3,91368.2C26049.1,91355.8 26043.7,91340.1 26031.2,91334.5C26003.7,91322.2 25955.3,91304.3 25899.7,91304.3C25785.5,91304.3 25719.2,91336.8 25719.2,91422C25719.2,91535.2 25932,91562.1 25932,91593.5C25932,91608.1 25913.4,91616.5 25885.3,91616.5C25823.8,91616.5 25783.1,91597.5 25750.8,91572.2C25740.1,91563.8 25727.5,91566.1 25722.7,91578.4L25704.8,91621C25700,91633.3 25704.8,91650.2 25716.8,91657.4C25746.1,91675.4 25804.6,91703.4 25877.6,91703.4C25992.9,91703.4 26065.3,91651.3 26065.3,91580.6C26065.3,91469.1 25852.5,91451.1 25852.5,91415.8ZM25124.7,90841.6L25087.7,90841.6C25074.8,90841.6 25064.7,90851.1 25064.7,90863.2L25064.7,90976.9C25064.7,90988.5 25058.2,90990.5 25050.7,90981.4L24948.2,90858.7C24940.7,90849.1 24924.1,90841.6 24911.2,90841.6L24858.6,90841.6C24845.8,90841.6 24835.6,90851.1 24835.6,90863.2L24835.6,91171.1C24835.6,91183.2 24845.8,91192.8 24858.6,91192.8L24895.7,91192.8C24908,91192.8 24918.2,91183.2 24918.2,91171.1L24918.2,91011.1C24918.2,90999.1 24924.6,90997 24932.7,91006.6L25071.6,91175.7C25079.7,91185.2 25096.3,91192.8 25108.6,91192.8L25124.7,91192.8C25137.6,91192.8 25147.8,91184.2 25147.8,91173.2L25147.8,90863.2C25147.8,90851.1 25137.6,90841.6 25124.7,90841.6ZM24858.4,90614.8C24858.4,90630 25161.5,90645.3 25321,90660.4C25433.2,90671 25545.6,90681.4 25658,90691.7C25696.9,90695.3 25735.9,90698.6 25774.9,90702.1C25789,90703.3 25808.2,90705.3 25823.8,90705.8C25851.9,90706.7 25881.2,90704.4 25907.5,90700.8C25987.7,90689.7 26049.6,90661.7 26062.6,90629.2C26068.3,90614.9 26064.7,90600.1 26052.9,90586.3C26044.5,90576.5 26031.9,90567.1 26015.5,90558.9C25995.4,90548.9 25969.7,90540.6 25940.8,90534.6C25910.2,90528.2 25875.2,90524.2 25840.4,90523.6C25818.5,90523.2 25796.1,90525.6 25774.9,90527.5C25735.9,90530.9 25696.9,90534.2 25658,90537.8C25545.6,90548.1 25433.2,90558.6 25321,90569.2C25251.2,90575.7 25154,90582.4 25066.7,90589C25152.9,90574.3 25248.6,90557.1 25317.8,90546.5C25429.2,90529.5 25540.6,90512.3 25652,90495C25690.5,90489 25729.1,90482.8 25767.7,90476.6C25781.7,90474.4 25800.8,90471.6 25816,90468.3C25843.4,90462.4 25871.1,90453.1 25895.5,90443.2C25969.9,90413 26022,90371 26025.5,90336.4C26027.1,90321.2 26019.5,90307.7 26004.4,90297.3C25993.5,90289.9 25978.8,90283.9 25960.7,90280C25938.5,90275.1 25911.3,90273.4 25881.7,90274.6C25850.5,90275.8 25815.6,90280.5 25781.8,90288.3C25760.5,90293.2 25739.5,90301 25719.6,90308C25682.8,90320.7 25646.1,90333.4 25609.5,90346.3C25503.8,90383.6 25398.1,90420.9 25292.7,90458.4C25227.1,90481.7 25135,90511.7 25052.5,90539.4C25131.7,90504.2 25219.4,90464.3 25283.3,90437.3C25386.2,90393.9 25489,90350.2 25591.9,90306.5C25627.5,90291.3 25663,90275.9 25698.6,90260.6C25711.5,90255 25729.2,90247.7 25743,90240.9C25767.8,90228.5 25791.9,90212.8 25812.8,90197.3C25876.4,90150.1 25915.1,90096.8 25909,90062.6C25906.3,90047.5 25895.2,90036.3 25877.7,90030C25865.2,90025.4 25849.3,90023.2 25830.7,90023.8C25808,90024.5 25781.3,90029.5 25753,90037.8C25723.2,90046.5 25690.7,90059.6 25660.2,90075.3C25641,90085.2 25622.9,90097.8 25605.6,90109.4C25573.6,90130.6 25541.6,90151.8 25509.8,90173.2C25418,90234.8 25326.3,90296.5 25234.7,90358.3C25177.8,90396.7 25097.2,90448.1 25025.1,90494.8C25091.9,90441.6 25165.6,90381.8 25219.9,90340.2C25307.2,90273.3 25394.6,90206.2 25481.8,90138.9C25512,90115.6 25542.1,90092.1 25572.3,90068.7C25583.2,90060.2 25598.2,90048.9 25609.6,90038.9C25630.2,90020.9 25649.2,89999.9 25665.1,89979.8C25713.4,89918.8 25736.1,89858 25720.8,89826.4C25714,89812.5 25700.3,89804.4 25681.6,89802.5C25668.2,89801.1 25652.3,89802.9 25634.5,89807.9C25612.7,89814.1 25588.3,89825.4 25563.3,89840.3C25536.9,89856 25509.1,89876.4 25484,89899C25468.2,89913.3 25454.2,89929.9 25440.6,89945.2C25415.6,89973.5 25390.6,90001.8 25365.8,90030.1C25294.1,90111.9 25222.5,90193.8 25151.1,90275.7C25106.8,90326.6 25043,90395.8 24986.3,90458.4C25036.1,90390.8 25090.9,90315.2 25131.8,90261.8C25197.7,90176 25263.5,90089.9 25329.3,90003.8C25352,89974 25374.6,89944 25397.2,89914C25405.5,89903.1 25416.9,89888.5 25425.1,89876.2C25440,89853.8 25452.6,89828.9 25462.4,89805.6C25492.2,89735 25497.4,89670.7 25473.9,89643.9C25463.5,89632.1 25448,89627.6 25429.4,89630.3C25416.1,89632.2 25401.2,89637.8 25385.4,89647C25366.1,89658.3 25345.6,89675.1 25325.5,89695.5C25304.4,89717.1 25283.2,89743.6 25265.2,89771.6C25253.9,89789.2 25244.9,89808.6 25236,89826.7C25219.7,89860.1 25203.3,89893.5 25187.1,89926.8C25140.5,90023.3 25093.9,90119.8 25047.6,90216.2C25018.8,90276.2 24976.3,90358.4 24938.8,90432.7C24968.3,90355.3 25000.3,90269 25025.1,90207.5C25065.1,90108.5 25104.9,90009.5 25144.6,89910.3C25158.4,89876 25171.9,89841.5 25185.5,89807.1C25190.5,89794.6 25197.4,89777.7 25202,89763.8C25210.2,89738.5 25215.4,89711.4 25218.5,89686.6C25227.8,89611.1 25215.1,89547.8 25185,89527.6C25171.7,89518.7 25155.5,89518.1 25138.3,89525.2C25126,89530.3 25113.1,89539.3 25100.4,89552.1C25084.8,89567.7 25069.7,89588.9 25056,89613.5C25041.5,89639.5 25028.4,89670.2 25018.7,89701.5C25012.5,89721.3 25009.3,89742.2 25005.7,89761.9C24999.1,89798.1 24992.5,89834.3 24986.1,89870.5C24967.6,89975 24949.3,90079.4 24931.2,90183.9C24919.9,90248.8 24901.6,90338.6 24885.8,90419.4C24892.9,90337.5 24900,90246.3 24907,90180.9C24918.3,90075.6 24929.5,89970.3 24940.5,89864.8C24944.3,89828.4 24947.8,89791.8 24951.5,89755.2C24952.8,89741.9 24954.9,89724 24955.4,89709.3C24956.4,89683 24954,89655.5 24950.1,89630.8C24938.3,89555.6 24908.5,89497.5 24873.8,89485.4C24858.5,89480 24842.7,89483.4 24828.1,89494.4C24817.6,89502.3 24807.6,89514.2 24798.9,89529.5C24788.2,89548.4 24779.4,89572.5 24772.9,89599.6C24766.1,89628.3 24761.9,89661.1 24761.2,89693.8C24760.7,89714.3 24763.4,89735.3 24765.3,89755.2C24769,89791.8 24772.5,89828.4 24776.3,89864.8C24787.4,89970.3 24798.5,90075.6 24809.8,90180.9C24816.8,90246.3 24823.9,90337.5 24831,90419.4C24815.2,90338.6 24796.9,90248.8 24785.6,90183.9C24767.5,90079.4 24749.2,89975 24730.7,89870.5C24724.3,89834.3 24717.7,89798.1 24711.1,89761.9C24708.7,89748.8 24705.8,89730.9 24702.3,89716.6C24696,89690.9 24686,89665 24675.4,89642.1C24643.3,89572.3 24598.5,89523.5 24561.6,89520.1C24545.4,89518.6 24531,89525.7 24519.9,89540C24512,89550.1 24505.6,89564 24501.4,89581C24496.3,89601.8 24494.5,89627.2 24495.7,89655C24497,89684.3 24502,89717 24510.3,89748.7C24515.6,89768.7 24523.9,89788.4 24531.3,89807.1C24544.9,89841.5 24558.5,89876 24572.2,89910.3C24611.9,90009.5 24651.7,90108.5 24691.7,90207.5C24716.5,90269 24748.5,90355.3 24778,90432.7C24740.5,90358.4 24698,90276.2 24669.2,90216.2C24622.9,90119.7 24576.3,90023.3 24529.7,89926.8C24513.5,89893.5 24497.1,89860.1 24480.8,89826.7C24474.8,89814.6 24467.1,89798 24459.7,89785.1C24446.5,89761.8 24429.8,89739.2 24413.2,89719.6C24362.9,89660 24306.2,89623.7 24269.7,89629.4C24253.6,89632 24241.7,89642.3 24234.9,89658.8C24230,89670.5 24227.7,89685.4 24228.3,89702.8C24229.1,89724.2 24234.3,89749.2 24243.2,89775.7C24252.5,89803.7 24266.4,89834.1 24283.2,89862.7C24293.8,89880.8 24307.3,89897.7 24319.6,89914C24342.2,89944 24364.8,89974 24387.5,90003.8C24453.3,90089.9 24519.1,90175.9 24585,90261.8C24625.9,90315.2 24680.7,90390.8 24730.5,90458.4C24673.8,90395.8 24610,90326.6 24565.7,90275.7C24494.3,90193.8 24422.7,90111.9 24351,90030.1C24326.2,90001.7 24301.1,89973.5 24276.2,89945.2C24267.1,89935 24255,89920.9 24244.4,89910.2C24225.2,89890.9 24202.8,89873.1 24181.4,89858.2C24116.3,89812.8 24051.5,89791.6 24017.8,89805.9C24003,89812.3 23994.3,89825.2 23992.3,89842.7C23990.8,89855.2 23992.7,89870.2 23998.1,89886.9C24004.7,89907.3 24016.7,89930.2 24032.6,89953.7C24049.4,89978.4 24071.2,90004.4 24095.3,90028C24110.5,90042.8 24128.2,90055.9 24144.5,90068.7C24174.7,90092.1 24204.8,90115.6 24235,90138.9C24322.3,90206.1 24409.6,90273.3 24496.9,90340.2C24551.2,90381.8 24624.9,90441.6 24691.7,90494.8C24619.6,90448.1 24539,90396.7 24482.1,90358.3C24390.5,90296.5 24298.8,90234.8 24207,90173.1C24175.2,90151.8 24143.2,90130.6 24111.2,90109.4C24099.7,90101.7 24084.1,90091 24070.9,90083.2C24047,90069.2 24020.4,90057.5 23995.7,90048.3C23920.3,90020.3 23851.8,90015.5 23823.2,90037.5C23810.7,90047.3 23805.9,90061.8 23808.7,90079.2C23810.8,90091.7 23816.7,90105.7 23826.6,90120.5C23838.6,90138.6 23856.5,90157.8 23878.3,90176.6C23901.3,90196.5 23929.6,90216.3 23959.3,90233.2C23978.1,90243.9 23998.8,90252.2 24018.2,90260.6C24053.8,90275.9 24089.3,90291.3 24124.9,90306.4C24227.8,90350.2 24330.6,90393.9 24433.5,90437.3C24497.4,90464.3 24585.1,90504.2 24664.3,90539.3C24581.8,90511.7 24489.7,90481.7 24424.1,90458.4C24318.7,90420.9 24213,90383.6 24107.3,90346.3C24070.7,90333.4 24033.9,90320.7 23997.2,90308C23983.9,90303.3 23965.9,90296.8 23951,90292.5C23924.1,90284.8 23895.2,90279.9 23868.7,90277C23788.2,90268.3 23720.7,90280.2 23699.2,90308.5C23689.7,90320.9 23689.1,90336.1 23696.7,90352.3C23702.1,90363.8 23711.7,90375.9 23725.3,90387.8C23742,90402.4 23764.5,90416.6 23790.8,90429.5C23818.5,90443.1 23851.3,90455.4 23884.7,90464.4C23905.8,90470.2 23928.1,90473.2 23949.1,90476.6C23987.7,90482.8 24026.3,90489 24064.8,90495C24176.2,90512.3 24287.6,90529.5 24399,90546.5C24468.2,90557.1 24563.9,90574.3 24650.1,90589C24562.8,90582.4 24465.5,90575.7 24395.8,90569.1C24283.6,90558.5 24171.2,90548.1 24058.8,90537.8C24019.9,90534.2 23980.9,90530.9 23941.9,90527.5C23927.8,90526.2 23908.6,90524.3 23893,90523.7C23864.9,90522.8 23835.6,90525.1 23809.3,90528.7C23729.1,90539.8 23667.2,90567.8 23654.2,90600.3C23648.5,90614.6 23652.1,90629.5 23663.9,90643.2C23672.3,90653 23684.9,90662.4 23701.3,90670.6C23721.4,90680.6 23747.1,90688.9 23776,90694.9C23806.6,90701.3 23841.6,90705.3 23876.4,90705.9C23898.3,90706.4 23920.7,90703.9 23941.9,90702C23980.9,90698.6 24019.9,90695.3 24058.8,90691.7C24171.2,90681.4 24283.6,90670.9 24395.8,90660.4C24555.2,90645.3 24858.2,90630 24858.4,90614.8ZM24801.2,91173.7L24749.7,91081.1C24743.8,91070.5 24743.3,91059.9 24748.1,91056.4L24756.2,91049.9C24781.9,91028.2 24795.9,90998.6 24795.9,90966.4C24795.9,90933.6 24780.8,90901.9 24754,90878.8C24734.2,90861.7 24698.2,90841.6 24641.9,90841.6L24497.6,90841.6C24488.4,90841.6 24480.9,90851.1 24480.9,90863.2L24480.9,91171.1C24480.9,91183.2 24491.1,91192.8 24504,91192.8L24573.8,91192.8C24586.6,91192.8 24596.8,91183.2 24596.8,91171.1L24596.8,91105.7C24596.8,91093.7 24603.3,91084.1 24610.8,91084.1C24618.3,91084.1 24629,91092.7 24634.9,91103.2L24674.6,91173.7C24680.5,91184.2 24695.5,91192.8 24708.4,91192.8L24788.9,91192.8C24801.8,91192.8 24807.1,91184.2 24801.2,91173.7ZM24678.4,90996C24671.9,91003.1 24662.8,91006.6 24649.4,91006.6L24619.9,91006.6C24607,91006.6 24596.8,90996.5 24596.8,90985L24596.8,90940.7C24596.8,90929.1 24607,90919.1 24619.4,90919.1L24641.9,90919.1C24658,90919.1 24688.6,90929.1 24688.6,90967.9C24688.6,90978.9 24684.8,90989 24678.4,90996ZM24656.4,91302.6C24535,91302.6 24436.4,91392.3 24436.4,91503.3C24436.4,91614.3 24535,91704.5 24656.4,91704.5C24777.1,91704.5 24875.7,91614.3 24875.7,91503.3C24875.7,91392.3 24777.1,91302.6 24656.4,91302.6ZM24656.4,91617.6C24599.6,91617.6 24554.1,91566.6 24554.1,91503.3C24554.1,91440.5 24599.6,91388.9 24656.4,91388.9C24712.5,91388.9 24758,91440.5 24758,91503.3C24758,91566.6 24712.5,91617.6 24656.4,91617.6Z"/>
            </g>
        </g>
    </g>
</svg>
